<svg xmlns="http://www.w3.org/2000/svg" id="SvgjsSvg65997" width="4096" height="1943.2267293532736" version="1.1" xmlnsXlink="http://www.w3.org/1999/xlink" xmlnsSvgjs="http://svgjs.com/svgjs"><defs id="SvgjsDefs65998"></defs><g id="SvgjsG65999" transform="translate(328, 328) scale(34.4)" opacity="1"><defs id="SvgjsDefs22107"></defs><g id="SvgjsG22108" transform="scale(0.21645021645021645)" opacity="1"><g id="SvgjsG22109" class="L92HTFmYg" transform="translate(0, 36.27058460966467) scale(1)" light-content="false" fill="#333333"><path d="M0 0 h 161.70000000000002 v 8 h -161.70000000000002 ZM300.30000000000007 0 h 161.70000000000002 v 8 h -161.70000000000002 Z M0 0 h 8 v 123.35526315789468 h -8 Z M462.00000000000006 123.35526315789468 h -46.199999999999996 v -8 h 46.199999999999996 ZM46.20000000000001 123.35526315789468 h -46.20000000000001 v -8 h 46.20000000000001 Z M462.00000000000006 123.35526315789468 h -8 v -123.35526315789468 h 8 Z" fill-rule="nonzero"></path></g><g id="SvgjsG22110" class="NqbbL3odD5" transform="translate(191.17694467298858, -1.1228207064253288) scale(2.2456937028739348)" light-content="false" non-strokable="false" fill="#149aff"><path d="M11.125 6.482c1.062 0 2.104.084 3.121.244a18.951 18.951 0 0 0-8.032-2.478 16.072 16.072 0 0 0-3.47 4.081 19.868 19.868 0 0 1 8.381-1.847zm7.632 2.521a19.984 19.984 0 0 1 5.762 11.19 2.11 2.11 0 0 1 1.399.748c.495-.283.978-.586 1.445-.911a2.09 2.09 0 0 1-.271-1.017c0-.666.313-1.254.792-1.643a19.197 19.197 0 0 0-9.127-8.367zm3.751 14.435a19.956 19.956 0 0 1-6.008.922 19.96 19.96 0 0 1-6.008-.922 2.12 2.12 0 0 1-1.292.918 18.942 18.942 0 0 0 1.858 7.193c1.699.614 3.531.95 5.441.95a15.98 15.98 0 0 0 5.442-.95 18.942 18.942 0 0 0 1.858-7.193 2.12 2.12 0 0 1-1.291-.918zm8.835-4.424c0 .771-.416 1.441-1.031 1.813.254.859.455 1.742.592 2.646A15.942 15.942 0 0 0 32.5 16.5c0-.049-.003-.096-.004-.145a20.21 20.21 0 0 1-1.409 1.669c.158.297.256.63.256.99zm-2.125 2.124c-.467 0-.894-.154-1.244-.409-.525.369-1.07.715-1.631 1.032a2.1 2.1 0 0 1 .076.534 2.127 2.127 0 0 1-1.695 2.082 19.827 19.827 0 0 1-1.537 6.658 16.05 16.05 0 0 0 6.949-6.164 19.015 19.015 0 0 0-.702-3.755c-.073.007-.142.022-.216.022zM7.279 3.428a19.878 19.878 0 0 1 7.757 2.689 2.114 2.114 0 0 1 1.464-.592c.569 0 1.083.228 1.464.592a19.873 19.873 0 0 1 7.757-2.689A15.923 15.923 0 0 0 16.5.5a15.923 15.923 0 0 0-9.221 2.928z"></path><path d="M26.785 4.248a18.936 18.936 0 0 0-8.309 2.639c.092.237.147.494.147.764 0 .098-.016.19-.028.285a20.126 20.126 0 0 1 10.116 9.021c.162-.041.33-.068.506-.068.479 0 .914.164 1.269.43a19.382 19.382 0 0 0 1.931-2.453 15.967 15.967 0 0 0-5.632-10.618zM17.774 9.34c-.355.27-.794.436-1.275.436a2.1 2.1 0 0 1-1.274-.436 19.065 19.065 0 0 0-5.826 10.957c.83.289 1.43 1.07 1.43 1.998 0 .094-.016.183-.027.273 1.8.563 3.714.869 5.697.869a19.06 19.06 0 0 0 5.698-.869c-.011-.091-.027-.18-.027-.273 0-.928.6-1.709 1.43-1.998A19.065 19.065 0 0 0 17.774 9.34zM9.813 31.035a19.857 19.857 0 0 1-1.537-6.658 2.127 2.127 0 0 1-1.695-2.082c0-.186.031-.362.076-.534a20.158 20.158 0 0 1-6.153-5.405c0 .049-.003.096-.003.145C.5 22.948 4.317 28.502 9.813 31.035z"></path><path d="M2.001 9.732a15.887 15.887 0 0 0-1.419 5.133 19.234 19.234 0 0 0 6.499 6.076 2.105 2.105 0 0 1 1.399-.748c.702-4.533 2.935-8.564 6.147-11.559a2.1 2.1 0 0 1-.249-.946A18.977 18.977 0 0 0 2.001 9.732z"></path></g><g id="SvgjsG22111" class="text" transform="translate(230.89016328820554, 113.90877165133901) scale(1)" light-content="false" fill="#0a0a0a"><path d="M-206 -20.5L-206 -3C-206 -2.05 -206.2 -1.42 -206.61 -1.11C-207.01 -0.81 -207.45 -0.66 -207.93 -0.66C-208.42 -0.66 -208.66 -0.61 -208.66 -0.52L-208.66 -0.13C-208.66 -0.04 -208.61 0 -208.52 0L-200.31 0C-200.22 0 -200.18 -0.04 -200.18 -0.13L-200.18 -0.52C-200.18 -0.61 -200.29 -0.66 -200.52 -0.66C-202.04 -0.66 -202.8 -1.31 -202.8 -2.62L-202.8 -20.12C-202.8 -21.07 -202.6 -21.7 -202.2 -22C-201.79 -22.31 -201.35 -22.46 -200.87 -22.46C-200.39 -22.46 -200.15 -22.51 -200.15 -22.59L-200.15 -22.99C-200.15 -23.08 -200.19 -23.12 -200.28 -23.12L-208.49 -23.12C-208.58 -23.12 -208.62 -23.08 -208.62 -22.99L-208.62 -22.59C-208.62 -22.51 -208.5 -22.46 -208.26 -22.46C-206.75 -22.46 -206 -21.81 -206 -20.5Z M-191.8 -12.91C-193.32 -11.37 -194.08 -9.52 -194.08 -7.37C-194.08 -5.22 -193.34 -3.38 -191.85 -1.85C-190.37 -0.32 -188.5 0.44 -186.25 0.44C-183.99 0.44 -182.12 -0.31 -180.63 -1.83C-179.14 -3.34 -178.39 -5.2 -178.39 -7.41C-178.39 -9.62 -179.18 -11.47 -180.75 -12.98C-182.33 -14.48 -184.18 -15.23 -186.31 -15.23C-188.44 -15.23 -190.27 -14.46 -191.8 -12.91ZM-190 -3.15C-190.91 -4.71 -191.36 -6.37 -191.36 -8.12C-191.36 -9.88 -190.98 -11.33 -190.22 -12.47C-189.46 -13.61 -188.42 -14.18 -187.1 -14.18C-185.29 -14.18 -183.86 -13.3 -182.79 -11.54C-181.73 -9.78 -181.2 -8.07 -181.2 -6.39C-181.2 -4.72 -181.58 -3.31 -182.33 -2.16C-183.09 -1.02 -184.19 -0.44 -185.62 -0.44C-187.47 -0.44 -188.93 -1.34 -190 -3.15Z M-167.26 -0.52L-167.26 -0.13C-167.26 -0.04 -167.22 0 -167.13 0L-155.87 0C-155.78 0 -155.74 -0.04 -155.74 -0.13L-155.74 -0.52C-155.74 -0.61 -155.78 -0.66 -155.87 -0.66L-156.34 -0.66C-157.41 -0.66 -158.27 -0.89 -158.92 -1.34C-159.57 -1.8 -159.9 -2.34 -159.9 -2.95L-159.9 -21.1C-159.9 -21.33 -159.85 -21.46 -159.76 -21.49C-159.67 -21.51 -159.56 -21.54 -159.42 -21.56L-153.11 -21.56C-152.4 -21.41 -151.88 -21.01 -151.55 -20.37C-151.23 -19.73 -150.97 -18.87 -150.8 -17.77C-150.77 -17.61 -150.71 -17.53 -150.62 -17.53L-150.32 -17.53C-150.26 -17.53 -150.23 -17.55 -150.23 -17.59L-150.23 -18.13L-150.83 -23.25C-150.85 -23.37 -150.88 -23.48 -150.92 -23.59C-150.96 -23.7 -151.05 -23.76 -151.19 -23.76C-151.32 -23.76 -151.43 -23.71 -151.52 -23.6C-151.61 -23.5 -151.7 -23.39 -151.8 -23.28C-151.9 -23.17 -152.18 -23.12 -152.65 -23.12L-170.33 -23.12C-170.82 -23.12 -171.15 -23.23 -171.33 -23.44C-171.5 -23.65 -171.67 -23.76 -171.82 -23.76C-171.97 -23.76 -172.08 -23.59 -172.15 -23.25L-172.75 -18.13L-172.75 -17.59C-172.75 -17.55 -172.72 -17.53 -172.66 -17.53L-172.36 -17.53C-172.27 -17.53 -172.21 -17.63 -172.18 -17.83C-172.15 -18.03 -172.04 -18.5 -171.87 -19.22C-171.55 -20.56 -170.89 -21.34 -169.87 -21.56L-163.57 -21.56C-163.44 -21.54 -163.33 -21.51 -163.24 -21.49C-163.14 -21.46 -163.1 -21.33 -163.1 -21.1L-163.1 -2.95C-163.1 -2.34 -163.42 -1.8 -164.07 -1.34C-164.72 -0.89 -165.58 -0.66 -166.66 -0.66L-167.11 -0.66C-167.21 -0.66 -167.26 -0.61 -167.26 -0.52Z M-111.39 -0.62L-109.13 -5.61C-109.06 -5.73 -109.03 -5.85 -109.03 -5.98C-109.03 -6.12 -109.08 -6.18 -109.19 -6.18L-109.41 -6.18C-109.52 -6.18 -109.58 -6.15 -109.6 -6.08C-110.42 -4.57 -111.55 -3.3 -112.99 -2.26C-114.43 -1.22 -116.02 -0.71 -117.77 -0.71C-120.97 -0.71 -123.5 -1.84 -125.37 -4.1C-127.23 -6.36 -128.16 -9.07 -128.16 -12.22C-128.16 -15.38 -127.32 -17.91 -125.62 -19.82C-123.93 -21.74 -121.58 -22.69 -118.57 -22.69C-115.24 -22.69 -112.75 -21.05 -111.11 -17.76C-111.1 -17.72 -111.08 -17.68 -111.04 -17.61C-111 -17.54 -110.96 -17.47 -110.92 -17.4C-110.88 -17.32 -110.85 -17.25 -110.82 -17.18C-110.78 -17.1 -110.75 -17.04 -110.72 -16.99C-110.68 -16.95 -110.57 -16.92 -110.37 -16.92C-110.18 -16.92 -110.08 -16.98 -110.08 -17.08L-110.08 -22.18C-110.08 -22.37 -110.14 -22.46 -110.27 -22.46L-110.78 -22.46L-111.27 -22.33C-111.37 -22.33 -111.64 -22.41 -112.07 -22.58C-112.5 -22.74 -113.03 -22.9 -113.65 -23.05C-115.71 -23.56 -117.48 -23.81 -118.98 -23.81C-120.07 -23.81 -121.17 -23.67 -122.26 -23.4C-125.69 -22.54 -128.26 -20.71 -129.97 -17.89C-131.14 -15.96 -131.72 -13.82 -131.72 -11.44C-131.72 -9.07 -131.14 -6.99 -129.97 -5.19C-128.8 -3.39 -127.24 -2 -125.29 -1.02C-123.33 -0.05 -121.32 0.44 -119.24 0.44C-118.33 0.44 -117.31 0.32 -116.19 0.07C-115.08 -0.17 -114.26 -0.35 -113.74 -0.47C-113.22 -0.58 -112.82 -0.64 -112.54 -0.64C-112.25 -0.64 -112 -0.61 -111.79 -0.57C-111.58 -0.52 -111.44 -0.54 -111.39 -0.62Z M-100.89 -12.91C-102.42 -11.37 -103.18 -9.52 -103.18 -7.37C-103.18 -5.22 -102.44 -3.38 -100.95 -1.85C-99.46 -0.32 -97.59 0.44 -95.34 0.44C-93.09 0.44 -91.22 -0.31 -89.73 -1.83C-88.23 -3.34 -87.49 -5.2 -87.49 -7.41C-87.49 -9.62 -88.27 -11.47 -89.85 -12.98C-91.42 -14.48 -93.28 -15.23 -95.41 -15.23C-97.54 -15.23 -99.37 -14.46 -100.89 -12.91ZM-99.1 -3.15C-100 -4.71 -100.46 -6.37 -100.46 -8.12C-100.46 -9.88 -100.08 -11.33 -99.32 -12.47C-98.56 -13.61 -97.52 -14.18 -96.19 -14.18C-94.39 -14.18 -92.96 -13.3 -91.89 -11.54C-90.82 -9.78 -90.29 -8.07 -90.29 -6.39C-90.29 -4.72 -90.67 -3.31 -91.43 -2.16C-92.19 -1.02 -93.29 -0.44 -94.72 -0.44C-96.57 -0.44 -98.02 -1.34 -99.1 -3.15Z M-69.72 -5.16C-69.72 -4.06 -69.76 -3.24 -69.85 -2.69C-69.85 -1.5 -70.43 -0.82 -71.6 -0.66C-72.12 -0.58 -72.37 -0.44 -72.37 -0.23C-72.37 -0.1 -72.32 -0.02 -72.21 0L-64.31 0C-64.2 -0.02 -64.14 -0.1 -64.14 -0.23C-64.14 -0.36 -64.19 -0.45 -64.3 -0.49C-64.4 -0.54 -64.62 -0.58 -64.95 -0.63C-65.29 -0.68 -65.63 -0.77 -66 -0.89C-66.85 -1.15 -67.27 -1.71 -67.27 -2.56L-67.27 -3.51L-67.13 -8.3C-67.13 -12.9 -68.39 -15.2 -70.91 -15.2C-71.54 -15.2 -72.32 -14.98 -73.27 -14.54C-74.23 -14.11 -75.17 -13.65 -76.11 -13.18C-76.52 -12.99 -76.75 -12.89 -76.82 -12.89C-76.87 -12.89 -76.91 -12.94 -76.95 -13.05L-76.95 -15.61C-76.95 -15.87 -77.04 -16 -77.23 -16C-77.26 -16 -77.34 -15.97 -77.47 -15.9L-81.65 -13.94C-81.82 -13.85 -81.9 -13.74 -81.9 -13.62C-81.9 -13.49 -81.88 -13.41 -81.84 -13.37C-81.8 -13.33 -81.71 -13.29 -81.56 -13.25C-81.42 -13.2 -81.22 -13.16 -80.96 -13.11C-80.71 -13.06 -80.48 -13 -80.26 -12.92C-79.76 -12.75 -79.51 -12.43 -79.51 -11.97L-79.51 -2.56C-79.51 -1.45 -80.1 -0.82 -81.28 -0.66C-81.79 -0.58 -82.05 -0.44 -82.05 -0.23C-82.05 -0.1 -81.99 -0.02 -81.88 0L-74.57 0C-74.46 -0.02 -74.41 -0.12 -74.41 -0.29C-74.41 -0.46 -74.66 -0.58 -75.18 -0.66C-76.36 -0.82 -76.95 -1.45 -76.95 -2.56L-76.95 -11.38C-76.94 -11.52 -76.79 -11.67 -76.52 -11.84C-74.49 -12.82 -73.16 -13.31 -72.53 -13.31C-71.9 -13.31 -71.4 -13.17 -71.03 -12.88C-70.66 -12.59 -70.35 -12.16 -70.11 -11.59C-69.87 -11.02 -69.75 -10.03 -69.75 -8.62Z M-51.36 -11.22L-51.36 -12.72C-51.36 -13.6 -51.4 -14.11 -51.49 -14.27C-51.58 -14.43 -51.87 -14.63 -52.38 -14.86C-52.89 -15.08 -53.67 -15.2 -54.73 -15.2C-55.79 -15.2 -56.83 -14.78 -57.83 -13.93C-58.84 -13.08 -59.34 -12.07 -59.34 -10.9C-59.34 -9.34 -58.24 -7.91 -56.03 -6.62C-55.46 -6.3 -54.93 -5.96 -54.45 -5.61C-53.96 -5.26 -53.55 -4.87 -53.23 -4.44C-52.9 -4.02 -52.73 -3.49 -52.73 -2.87C-52.73 -2.25 -52.94 -1.68 -53.36 -1.17C-53.77 -0.66 -54.32 -0.41 -55.01 -0.41C-56.56 -0.41 -57.71 -1.2 -58.46 -2.79C-58.57 -3.03 -58.63 -3.19 -58.66 -3.28C-58.69 -3.37 -58.72 -3.45 -58.77 -3.53C-58.81 -3.62 -58.86 -3.68 -58.92 -3.74C-58.98 -3.79 -59.06 -3.82 -59.14 -3.82C-59.23 -3.82 -59.29 -3.81 -59.33 -3.79C-59.37 -3.77 -59.39 -3.65 -59.39 -3.43C-59.39 -3.21 -59.34 -2.51 -59.24 -1.33C-59.14 -0.15 -59.06 0.44 -59 0.44L-58.72 0.44C-58.61 0.44 -58.46 0.35 -58.28 0.17C-58.1 -0.01 -57.97 -0.1 -57.89 -0.1C-57.81 -0.1 -57.5 -0.01 -56.96 0.17C-56.41 0.35 -55.81 0.44 -55.14 0.44C-53.9 0.44 -52.8 0.07 -51.86 -0.68C-50.92 -1.43 -50.45 -2.44 -50.45 -3.72C-50.45 -5 -51 -6.13 -52.09 -7.1C-52.58 -7.53 -53.34 -8.05 -54.39 -8.66C-55.44 -9.27 -56.19 -9.8 -56.65 -10.24C-57.11 -10.68 -57.34 -11.08 -57.34 -11.44C-57.34 -11.81 -57.29 -12.16 -57.18 -12.49C-56.83 -13.5 -56.15 -14 -55.14 -14C-54.38 -14 -53.74 -13.72 -53.22 -13.17C-52.7 -12.61 -52.31 -11.97 -52.05 -11.25C-51.95 -10.99 -51.81 -10.85 -51.63 -10.85C-51.45 -10.85 -51.36 -10.97 -51.36 -11.22Z M-33.5 -1.44L-33.5 0.03C-33.5 0.31 -33.46 0.44 -33.36 0.44C-33.27 0.44 -33.16 0.41 -33.03 0.34L-28.67 -1.46C-28.5 -1.54 -28.42 -1.64 -28.42 -1.76C-28.42 -1.89 -28.45 -1.95 -28.52 -1.95L-29.47 -1.89C-29.96 -1.89 -30.32 -1.99 -30.54 -2.2C-30.76 -2.4 -30.89 -2.75 -30.95 -3.23L-30.95 -14.87C-30.95 -15.09 -31.01 -15.2 -31.13 -15.2C-31.26 -15.2 -31.39 -15.18 -31.52 -15.13L-35.27 -14.05C-35.45 -14.01 -35.54 -13.88 -35.54 -13.68C-35.54 -13.48 -35.35 -13.37 -34.99 -13.35C-34.62 -13.32 -34.27 -13.17 -33.93 -12.89C-33.68 -12.66 -33.54 -12.38 -33.5 -12.07L-33.5 -3.18C-33.68 -2.93 -33.9 -2.7 -34.16 -2.49C-35 -1.85 -35.95 -1.52 -37 -1.52C-38.06 -1.52 -38.93 -1.73 -39.6 -2.15C-40.28 -2.56 -40.62 -3.15 -40.62 -3.92L-40.62 -14.92C-40.62 -15.11 -40.68 -15.2 -40.81 -15.2C-40.93 -15.2 -41.06 -15.18 -41.19 -15.13L-44.95 -14.05C-45.12 -14.01 -45.21 -13.88 -45.21 -13.68C-45.21 -13.48 -45.03 -13.37 -44.66 -13.35C-44.3 -13.32 -43.94 -13.17 -43.6 -12.89C-43.35 -12.66 -43.21 -12.38 -43.18 -12.07L-43.18 -2.07C-43.18 -1.58 -43.07 -1.18 -42.85 -0.85C-42.25 0.02 -41.27 0.46 -39.9 0.46C-38.53 0.46 -36.83 -0.05 -34.78 -1.07C-34.16 -1.38 -33.8 -1.57 -33.72 -1.63C-33.63 -1.69 -33.56 -1.63 -33.5 -1.44Z M-16.88 -0.62C-18.06 -0.8 -18.65 -1.42 -18.65 -2.49L-18.65 -26.58C-18.65 -26.84 -18.75 -26.97 -18.93 -26.97C-18.96 -26.97 -19.05 -26.94 -19.18 -26.87L-23.36 -24.91C-23.52 -24.82 -23.6 -24.71 -23.6 -24.59C-23.6 -24.46 -23.58 -24.38 -23.55 -24.34C-23.51 -24.3 -23.42 -24.26 -23.27 -24.22C-23.12 -24.17 -22.92 -24.13 -22.67 -24.08C-22.42 -24.03 -22.18 -23.97 -21.96 -23.89C-21.46 -23.71 -21.21 -23.4 -21.21 -22.94L-21.21 -2.49C-21.21 -1.42 -21.8 -0.8 -22.98 -0.62C-23.49 -0.56 -23.75 -0.43 -23.75 -0.23C-23.75 -0.1 -23.7 -0.02 -23.59 0L-16.27 0C-16.17 -0.02 -16.11 -0.1 -16.11 -0.23C-16.11 -0.43 -16.37 -0.56 -16.88 -0.62Z M-7.05 -12.61L-2.11 -12.61C-2.02 -12.61 -1.98 -12.64 -1.98 -12.71C-1.98 -14.06 -2.22 -14.74 -2.7 -14.74L-6.88 -14.74C-7.06 -14.75 -7.15 -14.86 -7.15 -15.05C-6.77 -16.46 -6.59 -17.18 -6.59 -17.2C-6.59 -17.35 -6.68 -17.43 -6.87 -17.43C-7.05 -17.43 -7.32 -17.22 -7.68 -16.81C-8.03 -16.39 -8.3 -16.06 -8.49 -15.82C-8.68 -15.58 -8.82 -15.4 -8.93 -15.28C-9.95 -14.32 -10.75 -13.65 -11.33 -13.28C-11.4 -13.23 -11.43 -13.1 -11.42 -12.9C-11.4 -12.71 -11.24 -12.61 -10.93 -12.61L-9.7 -12.61L-9.7 -3.48C-9.7 -2.4 -9.39 -1.48 -8.78 -0.71C-8.16 0.06 -7.24 0.44 -6.02 0.44C-4.8 0.44 -3.54 -0.4 -2.23 -2.1C-2.17 -2.18 -2.14 -2.34 -2.14 -2.61C-2.14 -2.68 -2.22 -2.72 -2.37 -2.72C-2.53 -2.72 -2.7 -2.65 -2.9 -2.5C-3.1 -2.35 -3.32 -2.19 -3.56 -2.02C-3.81 -1.84 -4.1 -1.68 -4.43 -1.53C-4.77 -1.39 -5.16 -1.31 -5.6 -1.31C-6.05 -1.31 -6.42 -1.5 -6.71 -1.87C-7 -2.24 -7.15 -2.75 -7.15 -3.41L-7.15 -12.46C-7.15 -12.56 -7.11 -12.61 -7.05 -12.61Z M2.93 0L10.25 0C10.36 -0.02 10.41 -0.11 10.41 -0.28C10.41 -0.44 10.15 -0.56 9.64 -0.62C8.46 -0.8 7.87 -1.42 7.87 -2.49L7.87 -14.81C7.87 -15.07 7.78 -15.2 7.59 -15.2C7.56 -15.2 7.48 -15.17 7.35 -15.1L3.16 -13.13C3 -13.05 2.92 -12.94 2.92 -12.81C2.92 -12.69 2.94 -12.61 2.98 -12.57C3.01 -12.53 3.11 -12.49 3.25 -12.44C3.4 -12.4 3.6 -12.35 3.85 -12.31C4.1 -12.26 4.34 -12.19 4.56 -12.12C5.06 -11.94 5.31 -11.62 5.31 -11.17L5.31 -2.49C5.31 -1.42 4.72 -0.8 3.54 -0.62C3.03 -0.56 2.77 -0.43 2.77 -0.23C2.77 -0.1 2.83 -0.02 2.93 0ZM5.16 -20.23C5.5 -19.95 5.9 -19.81 6.35 -19.81C6.81 -19.81 7.18 -19.97 7.48 -20.31C7.77 -20.64 7.92 -21.01 7.92 -21.41C7.92 -21.82 7.76 -22.2 7.45 -22.54C7.14 -22.89 6.76 -23.07 6.3 -23.07C5.85 -23.07 5.46 -22.92 5.13 -22.63C4.8 -22.33 4.64 -21.93 4.64 -21.42C4.64 -20.91 4.81 -20.52 5.16 -20.23Z M27.77 -5.16C27.77 -4.06 27.73 -3.24 27.64 -2.69C27.64 -1.5 27.06 -0.82 25.89 -0.66C25.37 -0.58 25.12 -0.44 25.12 -0.23C25.12 -0.1 25.17 -0.02 25.28 0L33.18 0C33.29 -0.02 33.35 -0.1 33.35 -0.23C33.35 -0.36 33.29 -0.45 33.19 -0.49C33.09 -0.54 32.87 -0.58 32.54 -0.63C32.2 -0.68 31.85 -0.77 31.49 -0.89C30.64 -1.15 30.22 -1.71 30.22 -2.56L30.22 -3.51L30.36 -8.3C30.36 -12.9 29.1 -15.2 26.58 -15.2C25.95 -15.2 25.17 -14.98 24.21 -14.54C23.26 -14.11 22.32 -13.65 21.38 -13.18C20.97 -12.99 20.74 -12.89 20.67 -12.89C20.62 -12.89 20.57 -12.94 20.54 -13.05L20.54 -15.61C20.54 -15.87 20.45 -16 20.26 -16C20.23 -16 20.15 -15.97 20.02 -15.9L15.84 -13.94C15.67 -13.85 15.59 -13.74 15.59 -13.62C15.59 -13.49 15.61 -13.41 15.65 -13.37C15.69 -13.33 15.78 -13.29 15.93 -13.25C16.07 -13.2 16.27 -13.16 16.52 -13.11C16.78 -13.06 17.01 -13 17.23 -12.92C17.73 -12.75 17.98 -12.43 17.98 -11.97L17.98 -2.56C17.98 -1.45 17.39 -0.82 16.21 -0.66C15.7 -0.58 15.44 -0.44 15.44 -0.23C15.44 -0.1 15.5 -0.02 15.61 0L22.92 0C23.03 -0.02 23.08 -0.12 23.08 -0.29C23.08 -0.46 22.83 -0.58 22.31 -0.66C21.13 -0.82 20.54 -1.45 20.54 -2.56L20.54 -11.38C20.55 -11.52 20.69 -11.67 20.97 -11.84C23 -12.82 24.33 -13.31 24.96 -13.31C25.59 -13.31 26.09 -13.17 26.46 -12.88C26.83 -12.59 27.14 -12.16 27.38 -11.59C27.62 -11.02 27.74 -10.03 27.74 -8.62Z M50.46 -13.63C49.32 -14.7 47.79 -15.23 45.87 -15.23C43.95 -15.23 42.3 -14.64 40.94 -13.46C39.58 -12.28 38.9 -10.76 38.9 -8.89C38.9 -7.88 39.24 -6.95 39.9 -6.11C40.57 -5.26 41.51 -4.6 42.74 -4.12C42.39 -3.85 41.98 -3.64 41.51 -3.48C41.04 -3.31 40.59 -3.13 40.16 -2.94C39.74 -2.75 39.38 -2.52 39.08 -2.25C38.79 -1.99 38.64 -1.57 38.64 -1.02C38.64 -0.46 39.01 0.11 39.76 0.69C40.51 1.27 41.41 1.6 42.46 1.69C42 2.26 41.52 2.72 41.02 3.09C40.51 3.46 40.05 3.81 39.63 4.14C39.21 4.47 38.86 4.83 38.59 5.21C38.32 5.58 38.18 6.06 38.18 6.64C38.18 7.7 38.72 8.61 39.79 9.35C40.86 10.1 42.43 10.48 44.49 10.48C45.63 10.48 46.71 10.37 47.72 10.17C50.58 9.59 52.7 8.43 54.08 6.69C54.88 5.71 55.28 4.75 55.28 3.82C55.28 2.74 54.86 1.78 54.02 0.93C53.48 0.4 52.73 0.04 51.76 -0.14C50.8 -0.32 48.77 -0.42 45.69 -0.44C42.61 -0.46 41.07 -0.94 41.07 -1.87C41.07 -2.24 41.39 -2.61 42.05 -2.98C42.31 -3.14 42.58 -3.29 42.85 -3.44C43.13 -3.58 43.35 -3.74 43.51 -3.92C44.18 -3.71 44.79 -3.61 45.35 -3.61C47.47 -3.61 49.19 -4.21 50.53 -5.41C51.13 -5.95 51.58 -6.56 51.9 -7.26C52.21 -7.95 52.36 -8.62 52.36 -9.26C52.36 -9.9 52.3 -10.37 52.18 -10.67C52.06 -10.98 51.96 -11.2 51.89 -11.33C51.81 -11.46 51.74 -11.59 51.67 -11.71L55.31 -11.71C55.48 -11.71 55.59 -11.73 55.64 -11.77C55.7 -11.82 55.72 -11.98 55.72 -12.26C55.72 -12.55 55.68 -12.85 55.59 -13.17C55.51 -13.5 55.42 -13.69 55.35 -13.74C55.27 -13.79 55.11 -13.82 54.86 -13.82ZM40.92 4.28C41.08 4 41.29 3.73 41.55 3.48C41.81 3.22 42.09 2.97 42.39 2.72C42.69 2.47 42.98 2.18 43.26 1.85C43.91 1.93 45.32 1.99 47.49 2.03C49.67 2.08 51.02 2.19 51.54 2.36C52.66 2.75 53.22 3.53 53.22 4.68C53.22 5.83 52.54 6.89 51.19 7.86C49.84 8.83 48.34 9.31 46.67 9.31C45.01 9.31 43.59 8.88 42.41 8C41.88 7.62 41.45 7.19 41.14 6.71C40.83 6.24 40.67 5.79 40.67 5.35C40.67 4.92 40.75 4.56 40.92 4.28ZM48.52 -13.03C49.29 -12.06 49.67 -10.81 49.67 -9.26C49.67 -7.72 49.32 -6.52 48.62 -5.66C47.93 -4.79 46.94 -4.36 45.66 -4.36C44.38 -4.36 43.35 -4.98 42.56 -6.23C41.91 -7.27 41.59 -8.57 41.59 -10.13C41.59 -10.9 41.72 -11.58 41.98 -12.17C42.66 -13.71 43.82 -14.48 45.46 -14.48C46.73 -14.48 47.75 -13.99 48.52 -13.03Z M73.23 0L83.03 0C83.12 0 83.17 -0.04 83.17 -0.13L83.17 -0.52C83.17 -0.61 83.11 -0.66 83 -0.66C82.89 -0.66 82.68 -0.68 82.36 -0.73C82.04 -0.78 81.82 -0.81 81.67 -0.84C80.61 -1 79.92 -1.22 79.59 -1.51C79.26 -1.79 79.1 -2.24 79.1 -2.84L79.1 -9.58C79.1 -9.73 79.18 -9.8 79.34 -9.8L79.48 -9.8L84.39 -9.61C85.07 -9.62 85.76 -9.82 86.46 -10.22C87.16 -10.62 87.79 -11.14 88.35 -11.79C89.63 -13.24 90.26 -14.86 90.26 -16.65C90.26 -18.44 89.61 -19.97 88.31 -21.25C87.01 -22.53 85.38 -23.23 83.43 -23.36L81.77 -23.36L72.57 -23.12L72.46 -23.12C72.32 -23.09 72.25 -22.99 72.25 -22.84C72.25 -22.58 72.36 -22.45 72.59 -22.45L73.33 -22.45C74.3 -22.45 74.97 -22.31 75.34 -22.03C75.72 -21.75 75.9 -21.11 75.9 -20.1L75.9 -2.79C75.9 -1.77 75.34 -1.14 74.23 -0.89C74.12 -0.86 73.96 -0.82 73.75 -0.75C73.53 -0.69 73.37 -0.66 73.26 -0.66C73.15 -0.66 73.1 -0.61 73.1 -0.52L73.1 -0.33C73.1 -0.11 73.14 0 73.23 0ZM80.01 -22.52C80.16 -22.53 80.3 -22.53 80.43 -22.54L80.82 -22.55C80.95 -22.56 81.09 -22.56 81.25 -22.56C82.98 -22.56 84.38 -22.07 85.42 -21.09C86.46 -20.1 86.99 -18.72 86.99 -16.93C86.99 -15.14 86.45 -13.66 85.37 -12.48C84.29 -11.3 82.88 -10.71 81.12 -10.71L79.44 -10.81C79.27 -10.82 79.16 -10.94 79.13 -11.17L79.1 -11.66L79.1 -22.23C79.1 -22.41 79.21 -22.5 79.44 -22.5C79.67 -22.51 79.86 -22.51 80.01 -22.52Z M106.49 -2.02C106.22 -2.19 106.08 -2.42 106.08 -2.71L106.08 -11.35C106.08 -12.4 105.65 -13.3 104.79 -14.06C103.93 -14.82 102.8 -15.2 101.43 -15.2C100.05 -15.2 98.83 -14.7 97.75 -13.71C97.3 -13.28 96.94 -12.81 96.69 -12.3C96.44 -11.78 96.31 -11.32 96.31 -10.9C96.31 -10.47 96.4 -10.26 96.57 -10.26C96.68 -10.29 97.1 -10.45 97.82 -10.76C98.54 -11.06 98.94 -11.28 99 -11.41L98.92 -12.05C98.92 -12.7 99.15 -13.19 99.6 -13.54C100.05 -13.89 100.5 -14.07 100.94 -14.07C101.39 -14.07 101.77 -13.99 102.08 -13.82C103.05 -13.32 103.53 -12.45 103.53 -11.22L103.53 -8.07C103.53 -8 103.51 -7.93 103.49 -7.85C103.46 -7.78 103.19 -7.6 102.67 -7.33C102.16 -7.06 101.57 -6.83 100.92 -6.66C98.98 -6.15 97.67 -5.63 96.98 -5.08C96.3 -4.54 95.95 -3.8 95.95 -2.87C95.95 -2.4 96.05 -1.96 96.25 -1.54C96.65 -0.73 97.3 -0.15 98.21 0.2C99.11 0.55 100.01 0.46 100.9 -0.05C101.25 -0.26 102.11 -0.87 103.46 -1.89C103.48 -1.9 103.51 -1.85 103.54 -1.74C103.98 -0.28 104.55 0.44 105.25 0.44C105.83 0.44 106.94 -0.16 108.58 -1.36C108.79 -1.52 108.9 -1.72 108.9 -1.96C108.9 -2.19 108.86 -2.31 108.77 -2.31C108.69 -2.31 108.52 -2.22 108.29 -2.04C108.05 -1.86 107.76 -1.77 107.41 -1.77C107.06 -1.77 106.75 -1.86 106.49 -2.02ZM99.13 -1.81C98.73 -2.2 98.53 -2.66 98.53 -3.18C98.53 -3.71 98.59 -4.07 98.73 -4.26C98.87 -4.46 99.13 -4.7 99.53 -4.98L103.33 -6.76C103.35 -6.77 103.39 -6.77 103.44 -6.77C103.5 -6.77 103.53 -6.71 103.53 -6.59L103.53 -3.26C103.53 -2.79 103.15 -2.34 102.41 -1.89C101.67 -1.45 101.04 -1.23 100.52 -1.23C100 -1.23 99.54 -1.42 99.13 -1.81Z M123.79 -11.76C124.04 -11.76 124.29 -12.01 124.54 -12.53C124.79 -13.04 124.92 -13.42 124.92 -13.67C124.92 -13.88 124.52 -14.14 123.73 -14.45C122.94 -14.75 122.35 -14.9 121.97 -14.9C121.29 -14.9 120.43 -14.18 119.39 -12.72C119.03 -12.21 118.81 -11.95 118.72 -11.95C118.66 -11.95 118.62 -12.02 118.62 -12.15L118.62 -14.81C118.62 -15.07 118.53 -15.2 118.35 -15.2C118.31 -15.2 118.23 -15.17 118.1 -15.1L113.92 -13.13C113.75 -13.05 113.67 -12.94 113.67 -12.81C113.67 -12.69 113.69 -12.61 113.73 -12.57C113.77 -12.53 113.86 -12.49 114.01 -12.44C114.16 -12.4 114.36 -12.35 114.61 -12.31C114.86 -12.26 115.09 -12.19 115.31 -12.12C115.81 -11.94 116.07 -11.62 116.07 -11.17L116.07 -2.49C116.07 -1.42 115.48 -0.8 114.3 -0.62C113.78 -0.56 113.52 -0.43 113.52 -0.23C113.52 -0.1 113.58 -0.02 113.69 0L121.9 0C122.01 -0.02 122.07 -0.1 122.07 -0.22C122.07 -0.35 122.02 -0.43 121.91 -0.48C121.81 -0.52 121.58 -0.57 121.21 -0.61C120.85 -0.66 120.47 -0.74 120.05 -0.85C119.1 -1.13 118.62 -1.67 118.62 -2.49L118.62 -9.9C118.62 -10.42 118.91 -10.99 119.47 -11.63C120.03 -12.27 120.57 -12.59 121.08 -12.59C121.6 -12.59 122.31 -12.38 123.21 -11.97C123.47 -11.85 123.66 -11.78 123.79 -11.76Z M133.41 -12.61L138.35 -12.61C138.43 -12.61 138.48 -12.64 138.48 -12.71C138.48 -14.06 138.24 -14.74 137.75 -14.74L133.57 -14.74C133.4 -14.75 133.31 -14.86 133.31 -15.05C133.68 -16.46 133.87 -17.18 133.87 -17.2C133.87 -17.35 133.78 -17.43 133.59 -17.43C133.4 -17.43 133.13 -17.22 132.78 -16.81C132.42 -16.39 132.15 -16.06 131.97 -15.82C131.78 -15.58 131.63 -15.4 131.52 -15.28C130.51 -14.32 129.71 -13.65 129.13 -13.28C129.05 -13.23 129.02 -13.1 129.04 -12.9C129.06 -12.71 129.22 -12.61 129.52 -12.61L130.75 -12.61L130.75 -3.48C130.75 -2.4 131.06 -1.48 131.68 -0.71C132.3 0.06 133.22 0.44 134.43 0.44C135.65 0.44 136.92 -0.4 138.23 -2.1C138.29 -2.18 138.31 -2.34 138.31 -2.61C138.31 -2.68 138.24 -2.72 138.08 -2.72C137.93 -2.72 137.75 -2.65 137.56 -2.5C137.36 -2.35 137.14 -2.19 136.89 -2.02C136.65 -1.84 136.36 -1.68 136.03 -1.53C135.69 -1.39 135.3 -1.31 134.85 -1.31C134.4 -1.31 134.04 -1.5 133.75 -1.87C133.46 -2.24 133.31 -2.75 133.31 -3.41L133.31 -12.46C133.31 -12.56 133.34 -12.61 133.41 -12.61Z M155.43 -5.16C155.43 -4.06 155.38 -3.24 155.3 -2.69C155.3 -1.5 154.71 -0.82 153.54 -0.66C153.03 -0.58 152.77 -0.44 152.77 -0.23C152.77 -0.1 152.83 -0.02 152.93 0L160.84 0C160.95 -0.02 161 -0.1 161 -0.23C161 -0.36 160.95 -0.45 160.85 -0.49C160.74 -0.54 160.52 -0.58 160.19 -0.63C159.86 -0.68 159.51 -0.77 159.15 -0.89C158.3 -1.15 157.87 -1.71 157.87 -2.56L157.87 -3.51L158.02 -8.3C158.02 -12.9 156.76 -15.2 154.23 -15.2C153.61 -15.2 152.82 -14.98 151.87 -14.54C150.92 -14.11 149.97 -13.65 149.03 -13.18C148.63 -12.99 148.39 -12.89 148.33 -12.89C148.27 -12.89 148.23 -12.94 148.2 -13.05L148.2 -15.61C148.2 -15.87 148.1 -16 147.92 -16C147.88 -16 147.8 -15.97 147.67 -15.9L143.49 -13.94C143.33 -13.85 143.24 -13.74 143.24 -13.62C143.24 -13.49 143.26 -13.41 143.3 -13.37C143.34 -13.33 143.43 -13.29 143.58 -13.25C143.73 -13.2 143.93 -13.16 144.18 -13.11C144.43 -13.06 144.67 -13 144.88 -12.92C145.39 -12.75 145.64 -12.43 145.64 -11.97L145.64 -2.56C145.64 -1.45 145.05 -0.82 143.87 -0.66C143.35 -0.58 143.1 -0.44 143.1 -0.23C143.1 -0.1 143.15 -0.02 143.26 0L150.57 0C150.68 -0.02 150.74 -0.12 150.74 -0.29C150.74 -0.46 150.48 -0.58 149.97 -0.66C148.79 -0.82 148.2 -1.45 148.2 -2.56L148.2 -11.38C148.21 -11.52 148.35 -11.67 148.62 -11.84C150.66 -12.82 151.99 -13.31 152.61 -13.31C153.24 -13.31 153.74 -13.17 154.12 -12.88C154.49 -12.59 154.79 -12.16 155.03 -11.59C155.27 -11.02 155.39 -10.03 155.39 -8.62Z M168.48 -8.64L177.98 -8.64C178.21 -8.64 178.33 -8.88 178.33 -9.35C178.33 -10.42 177.83 -11.66 176.82 -13.08C175.82 -14.49 174.52 -15.2 172.93 -15.2C170.73 -15.2 168.99 -14.35 167.73 -12.64C166.47 -10.94 165.84 -9.05 165.84 -6.98C165.84 -4.91 166.41 -3.18 167.57 -1.79C168.12 -1.12 168.78 -0.58 169.54 -0.17C170.31 0.24 171.06 0.44 171.8 0.44C172.55 0.44 173.21 0.34 173.8 0.13C175.52 -0.46 177.01 -1.52 178.28 -3.07C178.23 -3.1 178.17 -3.17 178.11 -3.27C178.05 -3.37 177.98 -3.43 177.92 -3.43L177.84 -3.43C177.8 -3.43 177.78 -3.42 177.76 -3.39C176.38 -2.1 174.94 -1.46 173.45 -1.46C171.96 -1.46 170.71 -2.03 169.7 -3.18C168.7 -4.33 168.2 -5.75 168.2 -7.44C168.2 -8.24 168.29 -8.64 168.48 -8.64ZM168.66 -10.21L168.66 -10.41C168.84 -11.36 169.27 -12.21 169.94 -12.95C170.61 -13.7 171.36 -14.07 172.18 -14.07C173.02 -14.07 173.8 -13.66 174.5 -12.83C175.21 -12 175.56 -11.2 175.56 -10.41C175.56 -10.07 175.42 -9.9 175.13 -9.9L168.95 -9.9C168.75 -9.9 168.66 -10.01 168.66 -10.21Z M194.41 -11.76C194.66 -11.76 194.91 -12.01 195.16 -12.53C195.42 -13.04 195.54 -13.42 195.54 -13.67C195.54 -13.88 195.15 -14.14 194.35 -14.45C193.56 -14.75 192.97 -14.9 192.59 -14.9C191.91 -14.9 191.05 -14.18 190.02 -12.72C189.66 -12.21 189.43 -11.95 189.34 -11.95C189.28 -11.95 189.25 -12.02 189.25 -12.15L189.25 -14.81C189.25 -15.07 189.15 -15.2 188.97 -15.2C188.93 -15.2 188.85 -15.17 188.72 -15.1L184.54 -13.13C184.38 -13.05 184.29 -12.94 184.29 -12.81C184.29 -12.69 184.31 -12.61 184.35 -12.57C184.39 -12.53 184.48 -12.49 184.63 -12.44C184.78 -12.4 184.98 -12.35 185.23 -12.31C185.48 -12.26 185.72 -12.19 185.93 -12.12C186.44 -11.94 186.69 -11.62 186.69 -11.17L186.69 -2.49C186.69 -1.42 186.1 -0.8 184.92 -0.62C184.4 -0.56 184.15 -0.43 184.15 -0.23C184.15 -0.1 184.2 -0.02 184.31 0L192.53 0C192.63 -0.02 192.69 -0.1 192.69 -0.22C192.69 -0.35 192.64 -0.43 192.53 -0.48C192.43 -0.52 192.2 -0.57 191.84 -0.61C191.48 -0.66 191.09 -0.74 190.67 -0.85C189.72 -1.13 189.25 -1.67 189.25 -2.49L189.25 -9.9C189.25 -10.42 189.53 -10.99 190.09 -11.63C190.65 -12.27 191.19 -12.59 191.71 -12.59C192.22 -12.59 192.93 -12.38 193.84 -11.97C194.09 -11.85 194.28 -11.78 194.41 -11.76Z M208 -11.22L208 -12.72C208 -13.6 207.96 -14.11 207.87 -14.27C207.78 -14.43 207.48 -14.63 206.98 -14.86C206.47 -15.08 205.68 -15.2 204.62 -15.2C203.56 -15.2 202.53 -14.78 201.52 -13.93C200.52 -13.08 200.01 -12.07 200.01 -10.9C200.01 -9.34 201.12 -7.91 203.33 -6.62C203.9 -6.3 204.42 -5.96 204.91 -5.61C205.4 -5.26 205.8 -4.87 206.13 -4.44C206.46 -4.02 206.62 -3.49 206.62 -2.87C206.62 -2.25 206.41 -1.68 206 -1.17C205.58 -0.66 205.03 -0.41 204.34 -0.41C202.79 -0.41 201.64 -1.2 200.9 -2.79C200.79 -3.03 200.72 -3.19 200.7 -3.28C200.67 -3.37 200.63 -3.45 200.59 -3.53C200.55 -3.62 200.49 -3.68 200.43 -3.74C200.37 -3.79 200.3 -3.82 200.21 -3.82C200.12 -3.82 200.06 -3.81 200.02 -3.79C199.98 -3.77 199.97 -3.65 199.97 -3.43C199.97 -3.21 200.01 -2.51 200.11 -1.33C200.21 -0.15 200.29 0.44 200.36 0.44L200.64 0.44C200.75 0.44 200.89 0.35 201.07 0.17C201.25 -0.01 201.38 -0.1 201.47 -0.1C201.55 -0.1 201.86 -0.01 202.4 0.17C202.94 0.35 203.55 0.44 204.21 0.44C205.46 0.44 206.55 0.07 207.49 -0.68C208.43 -1.43 208.9 -2.44 208.9 -3.72C208.9 -5 208.36 -6.13 207.26 -7.1C206.78 -7.53 206.02 -8.05 204.97 -8.66C203.92 -9.27 203.16 -9.8 202.7 -10.24C202.24 -10.68 202.02 -11.08 202.02 -11.44C202.02 -11.81 202.07 -12.16 202.18 -12.49C202.53 -13.5 203.21 -14 204.21 -14C204.98 -14 205.62 -13.72 206.14 -13.17C206.66 -12.61 207.05 -11.97 207.31 -11.25C207.41 -10.99 207.55 -10.85 207.73 -10.85C207.91 -10.85 208 -10.97 208 -11.22Z"></path></g><g id="SvgjsG22112" class="text" transform="translate(231.03301221165427, 165.67754421820538) scale(1)" light-content="false" fill="#1492ff"><path d="M-154.69 -0.43L-153.13 -3.85C-153.09 -3.93 -153.07 -4.02 -153.07 -4.11C-153.07 -4.2 -153.1 -4.24 -153.18 -4.24L-153.32 -4.24C-153.4 -4.24 -153.44 -4.22 -153.46 -4.17C-154.02 -3.14 -154.8 -2.27 -155.78 -1.55C-156.77 -0.84 -157.86 -0.48 -159.06 -0.48C-161.26 -0.48 -163 -1.26 -164.28 -2.81C-165.56 -4.37 -166.2 -6.22 -166.2 -8.39C-166.2 -10.55 -165.61 -12.29 -164.45 -13.6C-163.29 -14.92 -161.68 -15.57 -159.61 -15.57C-157.33 -15.57 -155.62 -14.44 -154.49 -12.19C-154.49 -12.16 -154.47 -12.13 -154.44 -12.08C-154.42 -12.04 -154.39 -11.99 -154.37 -11.94C-154.34 -11.89 -154.31 -11.83 -154.29 -11.79C-154.27 -11.74 -154.25 -11.7 -154.22 -11.66C-154.2 -11.63 -154.12 -11.61 -153.99 -11.61C-153.85 -11.61 -153.79 -11.65 -153.79 -11.72L-153.79 -15.22C-153.79 -15.35 -153.83 -15.41 -153.92 -15.41L-154.27 -15.41L-154.61 -15.32C-154.67 -15.32 -154.86 -15.38 -155.15 -15.49C-155.45 -15.61 -155.81 -15.71 -156.24 -15.82C-157.65 -16.16 -158.87 -16.34 -159.9 -16.34C-160.65 -16.34 -161.4 -16.24 -162.15 -16.06C-164.5 -15.47 -166.26 -14.21 -167.43 -12.28C-168.24 -10.96 -168.64 -9.48 -168.64 -7.85C-168.64 -6.23 -168.24 -4.8 -167.43 -3.56C-166.63 -2.33 -165.56 -1.37 -164.22 -0.7C-162.88 -0.03 -161.5 0.3 -160.08 0.3C-159.45 0.3 -158.75 0.22 -157.98 0.05C-157.22 -0.12 -156.66 -0.24 -156.3 -0.32C-155.94 -0.4 -155.67 -0.44 -155.47 -0.44C-155.28 -0.44 -155.11 -0.42 -154.96 -0.39C-154.82 -0.35 -154.72 -0.37 -154.69 -0.43Z M-149.79 -8.86C-150.83 -7.8 -151.36 -6.53 -151.36 -5.06C-151.36 -3.58 -150.85 -2.32 -149.83 -1.27C-148.81 -0.22 -147.52 0.3 -145.98 0.3C-144.43 0.3 -143.15 -0.22 -142.12 -1.25C-141.1 -2.29 -140.59 -3.57 -140.59 -5.09C-140.59 -6.6 -141.13 -7.87 -142.21 -8.91C-143.29 -9.94 -144.56 -10.45 -146.02 -10.45C-147.48 -10.45 -148.74 -9.92 -149.79 -8.86ZM-148.55 -2.16C-149.18 -3.23 -149.49 -4.37 -149.49 -5.58C-149.49 -6.78 -149.23 -7.77 -148.71 -8.56C-148.18 -9.34 -147.47 -9.73 -146.56 -9.73C-145.32 -9.73 -144.34 -9.13 -143.61 -7.92C-142.88 -6.71 -142.51 -5.54 -142.51 -4.39C-142.51 -3.24 -142.77 -2.27 -143.29 -1.49C-143.82 -0.7 -144.57 -0.3 -145.55 -0.3C-146.82 -0.3 -147.82 -0.92 -148.55 -2.16Z M-124.13 -3.54C-124.13 -2.79 -124.16 -2.22 -124.22 -1.85C-124.22 -1.03 -124.62 -0.56 -125.42 -0.45C-125.77 -0.4 -125.95 -0.3 -125.95 -0.16C-125.95 -0.07 -125.91 -0.02 -125.84 0L-120.41 0C-120.34 -0.02 -120.3 -0.07 -120.3 -0.16C-120.3 -0.25 -120.34 -0.31 -120.41 -0.34C-120.48 -0.37 -120.63 -0.4 -120.86 -0.43C-121.09 -0.47 -121.33 -0.53 -121.57 -0.61C-122.16 -0.79 -122.45 -1.17 -122.45 -1.76L-122.45 -2.41L-122.35 -5.69C-122.35 -8.85 -123.22 -10.43 -124.95 -10.43C-125.38 -10.43 -125.92 -10.28 -126.57 -9.98C-127.22 -9.68 -127.87 -9.37 -128.5 -9.06C-128.77 -8.92 -128.97 -8.83 -129.1 -8.78C-129.23 -8.73 -129.37 -8.87 -129.53 -9.2C-129.94 -10.02 -130.62 -10.43 -131.58 -10.43C-132.17 -10.43 -132.73 -10.3 -133.26 -10.05C-133.79 -9.79 -134.21 -9.57 -134.53 -9.38C-134.86 -9.19 -135.12 -9.04 -135.32 -8.93C-135.52 -8.83 -135.64 -8.78 -135.69 -8.78C-135.74 -8.78 -135.76 -8.8 -135.77 -8.84L-135.77 -10.71C-135.77 -10.89 -135.84 -10.98 -135.96 -10.98C-135.99 -10.98 -136.04 -10.96 -136.13 -10.91L-139 -9.56C-139.11 -9.5 -139.17 -9.43 -139.17 -9.34C-139.17 -9.26 -139.16 -9.2 -139.13 -9.18C-139.1 -9.15 -139.04 -9.12 -138.94 -9.09C-138.84 -9.06 -138.7 -9.03 -138.53 -9C-138.36 -8.96 -138.19 -8.92 -138.04 -8.87C-137.7 -8.75 -137.53 -8.53 -137.53 -8.21L-137.53 -1.73C-137.53 -0.99 -137.93 -0.56 -138.74 -0.45C-139.1 -0.4 -139.27 -0.3 -139.27 -0.16C-139.27 -0.07 -139.23 -0.02 -139.16 0L-134.14 0C-134.07 -0.02 -134.03 -0.08 -134.03 -0.2C-134.03 -0.31 -134.2 -0.4 -134.56 -0.45C-135.37 -0.56 -135.77 -1 -135.77 -1.76L-135.77 -7.74C-135.66 -7.88 -135.48 -8.02 -135.24 -8.18C-134.3 -8.81 -133.56 -9.12 -133.03 -9.12C-131.57 -9.12 -130.84 -8.54 -130.84 -7.36L-130.84 -1.76C-130.84 -1 -131.25 -0.56 -132.06 -0.45C-132.41 -0.4 -132.59 -0.3 -132.59 -0.16C-132.59 -0.07 -132.55 -0.02 -132.48 0L-127.46 0C-127.38 -0.02 -127.34 -0.08 -127.34 -0.2C-127.34 -0.31 -127.52 -0.4 -127.87 -0.45C-128.68 -0.56 -129.09 -1 -129.09 -1.76L-129.09 -7.81C-129.08 -7.91 -128.98 -8.01 -128.8 -8.12C-127.4 -8.8 -126.49 -9.14 -126.06 -9.14C-125.63 -9.14 -125.28 -9.04 -125.03 -8.84C-124.77 -8.64 -124.56 -8.34 -124.4 -7.95C-124.23 -7.56 -124.15 -6.89 -124.15 -5.92Z M-111 -1.18C-110.25 -1.9 -109.73 -2.75 -109.44 -3.71C-109.3 -4.2 -109.23 -4.66 -109.23 -5.1C-109.23 -5.54 -109.27 -5.96 -109.34 -6.35C-109.6 -7.71 -110.13 -8.78 -110.92 -9.54C-111.52 -10.13 -112.18 -10.42 -112.9 -10.42C-113.93 -10.42 -114.92 -10.11 -115.87 -9.5C-116.2 -9.28 -116.41 -9.17 -116.49 -9.17C-116.58 -9.17 -116.62 -9.21 -116.62 -9.29L-116.62 -10.72C-116.62 -10.9 -116.68 -10.99 -116.8 -10.99C-116.86 -10.99 -116.92 -10.98 -116.98 -10.95L-119.85 -9.58C-119.96 -9.52 -120.02 -9.44 -120.02 -9.36C-120.02 -9.27 -120.01 -9.21 -119.98 -9.19C-119.95 -9.16 -119.89 -9.13 -119.79 -9.1C-119.69 -9.07 -119.55 -9.04 -119.38 -9.01C-119.21 -8.97 -119.04 -8.93 -118.89 -8.88C-118.55 -8.76 -118.38 -8.54 -118.38 -8.22L-118.38 5.27C-118.38 6 -118.78 6.43 -119.59 6.55C-119.94 6.59 -120.12 6.68 -120.12 6.82C-120.12 6.91 -120.08 6.96 -120.01 6.98L-114.37 6.98C-114.3 6.96 -114.26 6.91 -114.26 6.82C-114.26 6.74 -114.29 6.68 -114.37 6.65C-114.44 6.62 -114.6 6.59 -114.84 6.55C-115.09 6.52 -115.36 6.47 -115.64 6.39C-116.3 6.2 -116.62 5.83 -116.62 5.27L-116.62 0.46C-116.61 0.36 -116.61 0.27 -116.59 0.18C-116.58 0.09 -116.51 0.05 -116.39 0.05C-115.58 0.22 -114.95 0.3 -114.48 0.3C-113.19 0.3 -112.03 -0.19 -111 -1.18ZM-114.21 -9.25C-113.4 -9.2 -112.74 -8.9 -112.23 -8.33C-111.39 -7.39 -110.96 -5.98 -110.96 -4.1C-110.96 -3.13 -111.23 -2.3 -111.76 -1.62C-112.51 -0.67 -113.56 -0.35 -114.91 -0.65C-115.59 -0.81 -116.1 -1.03 -116.43 -1.32C-116.56 -1.43 -116.62 -1.67 -116.62 -2.05L-116.62 -8.37C-116.04 -8.96 -115.23 -9.25 -114.21 -9.25Z M-103.05 -0.43C-103.86 -0.55 -104.27 -0.98 -104.27 -1.71L-104.27 -18.24C-104.27 -18.42 -104.33 -18.51 -104.46 -18.51C-104.48 -18.51 -104.54 -18.49 -104.63 -18.44L-107.5 -17.09C-107.61 -17.03 -107.67 -16.96 -107.67 -16.87C-107.67 -16.79 -107.65 -16.73 -107.63 -16.7C-107.6 -16.68 -107.54 -16.65 -107.44 -16.62C-107.33 -16.59 -107.2 -16.56 -107.02 -16.52C-106.85 -16.49 -106.69 -16.45 -106.54 -16.39C-106.2 -16.27 -106.02 -16.06 -106.02 -15.74L-106.02 -1.71C-106.02 -0.98 -106.43 -0.55 -107.24 -0.43C-107.59 -0.38 -107.77 -0.29 -107.77 -0.16C-107.77 -0.07 -107.73 -0.02 -107.65 0L-102.64 0C-102.56 -0.02 -102.52 -0.07 -102.52 -0.16C-102.52 -0.29 -102.7 -0.38 -103.05 -0.43Z M-101.34 0L-96.32 0C-96.25 -0.02 -96.21 -0.08 -96.21 -0.19C-96.21 -0.3 -96.39 -0.38 -96.74 -0.43C-97.55 -0.55 -97.96 -0.98 -97.96 -1.71L-97.96 -10.16C-97.96 -10.34 -98.02 -10.43 -98.15 -10.43C-98.17 -10.43 -98.23 -10.41 -98.32 -10.36L-101.18 -9.01C-101.3 -8.95 -101.35 -8.88 -101.35 -8.79C-101.35 -8.71 -101.34 -8.65 -101.31 -8.62C-101.29 -8.6 -101.22 -8.57 -101.12 -8.54C-101.02 -8.51 -100.88 -8.48 -100.71 -8.44C-100.54 -8.41 -100.38 -8.37 -100.23 -8.31C-99.88 -8.19 -99.71 -7.98 -99.71 -7.66L-99.71 -1.71C-99.71 -0.98 -100.12 -0.55 -100.93 -0.43C-101.28 -0.38 -101.45 -0.29 -101.45 -0.16C-101.45 -0.07 -101.42 -0.02 -101.34 0ZM-99.82 -13.88C-99.58 -13.69 -99.31 -13.59 -99 -13.59C-98.69 -13.59 -98.43 -13.71 -98.23 -13.94C-98.02 -14.16 -97.92 -14.42 -97.92 -14.69C-97.92 -14.97 -98.03 -15.23 -98.24 -15.47C-98.46 -15.71 -98.72 -15.83 -99.03 -15.83C-99.34 -15.83 -99.61 -15.73 -99.83 -15.53C-100.06 -15.32 -100.17 -15.05 -100.17 -14.7C-100.17 -14.35 -100.05 -14.08 -99.82 -13.88Z M-87.63 -1.39C-87.82 -1.51 -87.91 -1.66 -87.91 -1.86L-87.91 -7.79C-87.91 -8.51 -88.2 -9.13 -88.8 -9.65C-89.39 -10.17 -90.16 -10.43 -91.1 -10.43C-92.05 -10.43 -92.89 -10.09 -93.62 -9.41C-93.94 -9.11 -94.18 -8.79 -94.36 -8.44C-94.53 -8.09 -94.61 -7.77 -94.61 -7.48C-94.61 -7.19 -94.55 -7.04 -94.43 -7.04C-94.36 -7.06 -94.07 -7.17 -93.58 -7.38C-93.08 -7.59 -92.81 -7.74 -92.77 -7.83L-92.83 -8.27C-92.83 -8.71 -92.67 -9.05 -92.36 -9.29C-92.05 -9.53 -91.74 -9.65 -91.44 -9.65C-91.13 -9.65 -90.87 -9.6 -90.65 -9.49C-89.99 -9.14 -89.66 -8.54 -89.66 -7.7L-89.66 -5.54C-89.66 -5.49 -89.67 -5.44 -89.69 -5.39C-89.71 -5.34 -89.9 -5.22 -90.25 -5.03C-90.6 -4.84 -91 -4.69 -91.45 -4.57C-92.78 -4.22 -93.68 -3.86 -94.15 -3.49C-94.63 -3.11 -94.86 -2.61 -94.86 -1.97C-94.86 -1.65 -94.79 -1.34 -94.66 -1.06C-94.38 -0.5 -93.93 -0.11 -93.31 0.14C-92.7 0.38 -92.08 0.32 -91.46 -0.03C-91.22 -0.18 -90.64 -0.6 -89.71 -1.29C-89.69 -1.3 -89.67 -1.27 -89.65 -1.19C-89.35 -0.2 -88.96 0.3 -88.48 0.3C-88.08 0.3 -87.32 -0.11 -86.2 -0.93C-86.05 -1.05 -85.97 -1.18 -85.97 -1.34C-85.97 -1.51 -86 -1.59 -86.06 -1.59C-86.12 -1.59 -86.23 -1.52 -86.39 -1.4C-86.56 -1.28 -86.76 -1.22 -87 -1.22C-87.24 -1.22 -87.45 -1.27 -87.63 -1.39ZM-92.68 -1.24C-92.96 -1.51 -93.1 -1.82 -93.1 -2.18C-93.1 -2.54 -93.05 -2.79 -92.95 -2.93C-92.86 -3.06 -92.68 -3.23 -92.41 -3.42L-89.8 -4.64C-89.78 -4.64 -89.76 -4.65 -89.72 -4.65C-89.68 -4.65 -89.66 -4.61 -89.66 -4.52L-89.66 -2.24C-89.66 -1.92 -89.92 -1.6 -90.43 -1.3C-90.94 -1 -91.37 -0.84 -91.73 -0.84C-92.08 -0.84 -92.4 -0.98 -92.68 -1.24Z M-76.65 -3.54C-76.65 -2.79 -76.68 -2.22 -76.74 -1.85C-76.74 -1.03 -77.14 -0.56 -77.94 -0.45C-78.29 -0.4 -78.47 -0.3 -78.47 -0.16C-78.47 -0.07 -78.43 -0.02 -78.36 0L-72.93 0C-72.86 -0.02 -72.82 -0.07 -72.82 -0.16C-72.82 -0.25 -72.86 -0.31 -72.93 -0.34C-73 -0.37 -73.15 -0.4 -73.38 -0.43C-73.61 -0.47 -73.84 -0.53 -74.09 -0.61C-74.68 -0.79 -74.97 -1.17 -74.97 -1.76L-74.97 -2.41L-74.87 -5.69C-74.87 -8.85 -75.73 -10.43 -77.47 -10.43C-77.89 -10.43 -78.43 -10.28 -79.09 -9.98C-79.74 -9.68 -80.39 -9.37 -81.03 -9.05C-81.31 -8.91 -81.47 -8.84 -81.52 -8.84C-81.55 -8.84 -81.58 -8.88 -81.61 -8.96L-81.61 -10.71C-81.61 -10.89 -81.67 -10.98 -81.8 -10.98C-81.82 -10.98 -81.88 -10.96 -81.97 -10.91L-84.84 -9.56C-84.95 -9.5 -85.01 -9.43 -85.01 -9.34C-85.01 -9.26 -84.99 -9.2 -84.97 -9.18C-84.94 -9.15 -84.88 -9.12 -84.77 -9.09C-84.67 -9.06 -84.54 -9.03 -84.36 -9C-84.19 -8.96 -84.03 -8.92 -83.88 -8.87C-83.54 -8.75 -83.36 -8.53 -83.36 -8.21L-83.36 -1.76C-83.36 -1 -83.77 -0.56 -84.58 -0.45C-84.93 -0.4 -85.11 -0.3 -85.11 -0.16C-85.11 -0.07 -85.07 -0.02 -84.99 0L-79.98 0C-79.9 -0.02 -79.86 -0.08 -79.86 -0.2C-79.86 -0.31 -80.04 -0.4 -80.39 -0.45C-81.2 -0.56 -81.61 -1 -81.61 -1.76L-81.61 -7.81C-81.6 -7.91 -81.5 -8.01 -81.31 -8.12C-79.92 -8.8 -79.01 -9.14 -78.57 -9.14C-78.14 -9.14 -77.8 -9.04 -77.55 -8.84C-77.29 -8.64 -77.08 -8.34 -76.92 -7.95C-76.75 -7.56 -76.67 -6.89 -76.67 -5.92Z M-62.97 -9.08C-62.97 -9.15 -62.99 -9.22 -63.03 -9.29C-63.17 -9.62 -63.42 -9.9 -63.77 -10.12C-64.13 -10.33 -64.84 -10.44 -65.92 -10.44C-67.67 -10.44 -69.02 -10.01 -69.96 -9.15C-71.03 -8.16 -71.57 -6.56 -71.58 -4.32C-71.58 -3.11 -71.18 -2.04 -70.37 -1.1C-69.57 -0.17 -68.53 0.3 -67.27 0.3C-65.53 0.3 -64.09 -0.5 -62.94 -2.09C-62.9 -2.14 -62.87 -2.2 -62.87 -2.29C-62.87 -2.38 -62.9 -2.44 -62.95 -2.49C-63 -2.53 -63.05 -2.55 -63.1 -2.55C-63.14 -2.55 -63.28 -2.43 -63.5 -2.18C-64.24 -1.36 -65.07 -0.95 -65.99 -0.95C-67.23 -0.95 -68.15 -1.36 -68.75 -2.2C-69.35 -3.04 -69.65 -4.11 -69.65 -5.43C-69.65 -6.05 -69.53 -6.67 -69.3 -7.29C-68.88 -8.42 -68.28 -9.15 -67.5 -9.5C-66.73 -9.84 -66.07 -9.79 -65.53 -9.35C-65.4 -9.24 -65.28 -9.13 -65.16 -9.01C-65.05 -8.88 -64.88 -8.73 -64.67 -8.56C-64.45 -8.38 -64.19 -8.29 -63.89 -8.29C-63.28 -8.29 -62.97 -8.55 -62.97 -9.08Z M-59.49 -5.93L-52.96 -5.93C-52.8 -5.93 -52.72 -6.09 -52.72 -6.41C-52.72 -7.15 -53.07 -8 -53.76 -8.97C-54.45 -9.94 -55.34 -10.43 -56.43 -10.43C-57.94 -10.43 -59.13 -9.85 -60 -8.67C-60.87 -7.5 -61.3 -6.21 -61.3 -4.79C-61.3 -3.37 -60.9 -2.18 -60.11 -1.23C-59.73 -0.77 -59.28 -0.4 -58.76 -0.12C-58.23 0.16 -57.71 0.3 -57.2 0.3C-56.69 0.3 -56.24 0.23 -55.83 0.09C-54.65 -0.32 -53.63 -1.05 -52.76 -2.1C-52.8 -2.13 -52.84 -2.17 -52.88 -2.24C-52.92 -2.32 -52.96 -2.35 -53.01 -2.35L-53.06 -2.35C-53.08 -2.35 -53.1 -2.34 -53.12 -2.33C-54.06 -1.44 -55.05 -1 -56.07 -1C-57.1 -1 -57.95 -1.4 -58.64 -2.18C-59.33 -2.97 -59.68 -3.95 -59.68 -5.11C-59.68 -5.66 -59.61 -5.93 -59.49 -5.93ZM-59.36 -7.01L-59.36 -7.14C-59.24 -7.8 -58.94 -8.38 -58.48 -8.89C-58.02 -9.4 -57.51 -9.65 -56.94 -9.65C-56.37 -9.65 -55.84 -9.37 -55.35 -8.8C-54.87 -8.24 -54.63 -7.68 -54.63 -7.14C-54.63 -6.91 -54.72 -6.8 -54.92 -6.8L-59.16 -6.8C-59.3 -6.8 -59.36 -6.87 -59.36 -7.01Z M-44.65 0L-39.63 0C-39.55 -0.02 -39.52 -0.08 -39.52 -0.19C-39.52 -0.3 -39.69 -0.38 -40.04 -0.43C-40.85 -0.55 -41.26 -0.98 -41.26 -1.71L-41.26 -10.16C-41.26 -10.34 -41.32 -10.43 -41.45 -10.43C-41.47 -10.43 -41.53 -10.41 -41.62 -10.36L-44.49 -9.01C-44.6 -8.95 -44.66 -8.88 -44.66 -8.79C-44.66 -8.71 -44.64 -8.65 -44.62 -8.62C-44.59 -8.6 -44.53 -8.57 -44.43 -8.54C-44.33 -8.51 -44.19 -8.48 -44.02 -8.44C-43.84 -8.41 -43.68 -8.37 -43.53 -8.31C-43.19 -8.19 -43.01 -7.98 -43.01 -7.66L-43.01 -1.71C-43.01 -0.98 -43.42 -0.55 -44.23 -0.43C-44.58 -0.38 -44.76 -0.29 -44.76 -0.16C-44.76 -0.07 -44.72 -0.02 -44.65 0ZM-43.12 -13.88C-42.89 -13.69 -42.61 -13.59 -42.3 -13.59C-41.99 -13.59 -41.73 -13.71 -41.53 -13.94C-41.33 -14.16 -41.23 -14.42 -41.23 -14.69C-41.23 -14.97 -41.33 -15.23 -41.55 -15.47C-41.76 -15.71 -42.02 -15.83 -42.33 -15.83C-42.65 -15.83 -42.91 -15.73 -43.14 -15.53C-43.36 -15.32 -43.48 -15.05 -43.48 -14.7C-43.48 -14.35 -43.36 -14.08 -43.12 -13.88Z M-32.71 -7.7L-32.71 -8.73C-32.71 -9.33 -32.74 -9.69 -32.8 -9.79C-32.86 -9.9 -33.06 -10.04 -33.41 -10.19C-33.76 -10.35 -34.3 -10.43 -35.03 -10.43C-35.75 -10.43 -36.46 -10.14 -37.15 -9.56C-37.84 -8.98 -38.19 -8.28 -38.19 -7.48C-38.19 -6.41 -37.43 -5.43 -35.91 -4.55C-35.52 -4.32 -35.16 -4.09 -34.83 -3.85C-34.5 -3.61 -34.22 -3.34 -33.99 -3.05C-33.77 -2.76 -33.65 -2.4 -33.65 -1.97C-33.65 -1.54 -33.8 -1.15 -34.08 -0.8C-34.37 -0.46 -34.74 -0.28 -35.22 -0.28C-36.28 -0.28 -37.07 -0.83 -37.58 -1.91C-37.66 -2.08 -37.7 -2.19 -37.72 -2.25C-37.74 -2.31 -37.76 -2.37 -37.79 -2.42C-37.82 -2.48 -37.86 -2.53 -37.9 -2.57C-37.94 -2.6 -37.99 -2.62 -38.05 -2.62C-38.11 -2.62 -38.16 -2.61 -38.18 -2.6C-38.21 -2.58 -38.22 -2.5 -38.22 -2.35C-38.22 -2.2 -38.19 -1.72 -38.12 -0.91C-38.05 -0.1 -38 0.3 -37.95 0.3L-37.76 0.3C-37.69 0.3 -37.59 0.24 -37.46 0.12C-37.34 -0.01 -37.25 -0.07 -37.19 -0.07C-37.14 -0.07 -36.92 -0.01 -36.55 0.12C-36.18 0.24 -35.76 0.3 -35.31 0.3C-34.45 0.3 -33.7 0.05 -33.06 -0.47C-32.41 -0.98 -32.09 -1.68 -32.09 -2.55C-32.09 -3.43 -32.46 -4.2 -33.21 -4.87C-33.54 -5.16 -34.07 -5.52 -34.79 -5.94C-35.51 -6.36 -36.03 -6.72 -36.34 -7.03C-36.66 -7.33 -36.81 -7.61 -36.81 -7.85C-36.81 -8.1 -36.78 -8.34 -36.7 -8.57C-36.46 -9.26 -36 -9.61 -35.31 -9.61C-34.78 -9.61 -34.34 -9.42 -33.99 -9.03C-33.63 -8.65 -33.36 -8.21 -33.18 -7.72C-33.11 -7.54 -33.02 -7.45 -32.89 -7.45C-32.77 -7.45 -32.71 -7.53 -32.71 -7.7Z M-13.29 -10.13L-17.55 -10.13C-17.72 -10.13 -17.8 -10.06 -17.8 -9.94C-17.8 -9.72 -17.61 -9.61 -17.24 -9.61C-16.87 -9.61 -16.58 -9.5 -16.37 -9.27C-16.15 -9.05 -16.04 -8.83 -16.04 -8.63C-16.04 -8.43 -16.11 -8.12 -16.23 -7.72C-16.35 -7.31 -16.93 -5.82 -17.95 -3.23C-18.12 -2.78 -18.21 -2.54 -18.23 -2.5C-18.38 -2.09 -18.53 -2.08 -18.68 -2.46L-21.59 -8.71L-21.69 -8.98C-21.69 -9.43 -21.4 -9.65 -20.83 -9.65C-20.47 -9.65 -20.23 -9.67 -20.13 -9.72C-20.02 -9.76 -19.97 -9.84 -19.97 -9.95C-19.97 -10.07 -20 -10.13 -20.06 -10.13L-25.07 -10.13C-25.25 -10.13 -25.34 -10.05 -25.34 -9.89C-25.34 -9.73 -25.18 -9.64 -24.87 -9.61C-24.79 -9.6 -24.73 -9.59 -24.67 -9.58C-24 -9.36 -23.52 -8.87 -23.25 -8.11L-19.53 -0.36C-19.38 -0.17 -19.31 -0.02 -19.31 0.11C-19.31 0.24 -19.94 1.71 -21.2 4.53C-21.24 4.63 -21.36 4.78 -21.57 4.98C-21.78 5.18 -21.97 5.31 -22.14 5.36C-22.31 5.42 -22.47 5.48 -22.63 5.55C-22.78 5.61 -22.92 5.7 -23.04 5.81C-23.15 5.92 -23.21 6.09 -23.21 6.33C-23.21 6.57 -23.13 6.77 -22.98 6.94C-22.82 7.11 -22.61 7.2 -22.35 7.2C-21.75 7.2 -21.35 7 -21.16 6.6L-20.43 5.05L-15.14 -8.06C-14.95 -8.52 -14.77 -8.88 -14.59 -9.15C-14.42 -9.41 -14.23 -9.56 -14.01 -9.6C-13.79 -9.64 -13.63 -9.67 -13.53 -9.69C-13.43 -9.7 -13.35 -9.72 -13.29 -9.74C-13.24 -9.76 -13.2 -9.78 -13.19 -9.81C-13.17 -9.83 -13.16 -9.89 -13.16 -9.97C-13.16 -10.05 -13.21 -10.1 -13.29 -10.13Z M-10.47 -8.86C-11.52 -7.8 -12.04 -6.53 -12.04 -5.06C-12.04 -3.58 -11.53 -2.32 -10.51 -1.27C-9.49 -0.22 -8.21 0.3 -6.66 0.3C-5.12 0.3 -3.83 -0.22 -2.81 -1.25C-1.78 -2.29 -1.27 -3.57 -1.27 -5.09C-1.27 -6.6 -1.81 -7.87 -2.89 -8.91C-3.97 -9.94 -5.24 -10.45 -6.71 -10.45C-8.17 -10.45 -9.42 -9.92 -10.47 -8.86ZM-9.24 -2.16C-9.86 -3.23 -10.17 -4.37 -10.17 -5.58C-10.17 -6.78 -9.91 -7.77 -9.39 -8.56C-8.87 -9.34 -8.15 -9.73 -7.25 -9.73C-6.01 -9.73 -5.02 -9.13 -4.29 -7.92C-3.56 -6.71 -3.2 -5.54 -3.2 -4.39C-3.2 -3.24 -3.46 -2.27 -3.98 -1.49C-4.5 -0.7 -5.25 -0.3 -6.23 -0.3C-7.5 -0.3 -8.5 -0.92 -9.24 -2.16Z M8.06 -0.99L8.06 0.02C8.06 0.21 8.09 0.3 8.15 0.3C8.22 0.3 8.29 0.28 8.38 0.24L11.38 -1C11.49 -1.05 11.54 -1.12 11.54 -1.21C11.54 -1.3 11.52 -1.34 11.48 -1.34L10.82 -1.29C10.49 -1.29 10.24 -1.37 10.09 -1.51C9.94 -1.65 9.85 -1.89 9.81 -2.22L9.81 -10.21C9.81 -10.36 9.77 -10.43 9.68 -10.43C9.6 -10.43 9.51 -10.42 9.42 -10.39L6.84 -9.64C6.72 -9.61 6.66 -9.53 6.66 -9.39C6.66 -9.25 6.79 -9.17 7.04 -9.16C7.29 -9.14 7.53 -9.04 7.76 -8.84C7.94 -8.69 8.03 -8.5 8.06 -8.28L8.06 -2.18C7.94 -2.01 7.79 -1.85 7.61 -1.71C7.03 -1.27 6.38 -1.05 5.65 -1.05C4.93 -1.05 4.34 -1.19 3.87 -1.47C3.41 -1.76 3.17 -2.16 3.17 -2.69L3.17 -10.24C3.17 -10.37 3.13 -10.43 3.04 -10.43C2.96 -10.43 2.87 -10.42 2.78 -10.39L0.2 -9.64C0.08 -9.61 0.02 -9.53 0.02 -9.39C0.02 -9.25 0.15 -9.17 0.4 -9.16C0.65 -9.14 0.89 -9.04 1.13 -8.84C1.3 -8.69 1.4 -8.5 1.42 -8.28L1.42 -1.42C1.42 -1.09 1.49 -0.81 1.64 -0.59C2.06 0.02 2.73 0.32 3.67 0.32C4.61 0.32 5.78 -0.03 7.18 -0.73C7.61 -0.95 7.85 -1.08 7.91 -1.12C7.97 -1.16 8.02 -1.12 8.06 -0.99Z M19.85 -8.07C20.02 -8.07 20.19 -8.24 20.37 -8.6C20.54 -8.95 20.62 -9.21 20.62 -9.38C20.62 -9.53 20.35 -9.7 19.81 -9.91C19.26 -10.12 18.86 -10.23 18.6 -10.23C18.13 -10.23 17.54 -9.73 16.83 -8.73C16.58 -8.38 16.43 -8.2 16.37 -8.2C16.33 -8.2 16.3 -8.25 16.3 -8.34L16.3 -10.16C16.3 -10.34 16.24 -10.43 16.11 -10.43C16.09 -10.43 16.03 -10.41 15.94 -10.36L13.07 -9.01C12.96 -8.95 12.91 -8.88 12.91 -8.79C12.91 -8.71 12.92 -8.65 12.94 -8.62C12.97 -8.6 13.03 -8.57 13.14 -8.54C13.24 -8.51 13.37 -8.48 13.55 -8.44C13.72 -8.41 13.88 -8.37 14.03 -8.31C14.38 -8.19 14.55 -7.98 14.55 -7.66L14.55 -1.71C14.55 -0.98 14.14 -0.55 13.33 -0.43C12.98 -0.38 12.8 -0.29 12.8 -0.16C12.8 -0.07 12.84 -0.02 12.92 0L18.55 0C18.63 -0.02 18.67 -0.07 18.67 -0.15C18.67 -0.24 18.63 -0.3 18.56 -0.33C18.49 -0.36 18.33 -0.39 18.08 -0.42C17.83 -0.46 17.57 -0.51 17.28 -0.59C16.63 -0.77 16.3 -1.15 16.3 -1.71L16.3 -6.8C16.3 -7.15 16.5 -7.54 16.88 -7.98C17.27 -8.42 17.64 -8.64 17.99 -8.64C18.34 -8.64 18.83 -8.5 19.45 -8.21C19.63 -8.13 19.76 -8.08 19.85 -8.07Z M42.43 -3.54C42.43 -2.79 42.4 -2.22 42.34 -1.85C42.34 -1.03 41.94 -0.56 41.14 -0.45C40.78 -0.4 40.61 -0.3 40.61 -0.16C40.61 -0.07 40.64 -0.02 40.72 0L46.14 0C46.22 -0.02 46.25 -0.07 46.25 -0.16C46.25 -0.25 46.22 -0.31 46.15 -0.34C46.08 -0.37 45.93 -0.4 45.7 -0.43C45.47 -0.47 45.23 -0.53 44.98 -0.61C44.4 -0.79 44.11 -1.17 44.11 -1.76L44.11 -2.41L44.21 -5.69C44.21 -8.85 43.34 -10.43 41.61 -10.43C41.18 -10.43 40.64 -10.28 39.99 -9.98C39.34 -9.68 38.69 -9.37 38.05 -9.06C37.78 -8.92 37.58 -8.83 37.46 -8.78C37.33 -8.73 37.19 -8.87 37.03 -9.2C36.62 -10.02 35.93 -10.43 34.98 -10.43C34.39 -10.43 33.83 -10.3 33.3 -10.05C32.77 -9.79 32.34 -9.57 32.02 -9.38C31.7 -9.19 31.44 -9.04 31.24 -8.93C31.04 -8.83 30.92 -8.78 30.87 -8.78C30.82 -8.78 30.79 -8.8 30.78 -8.84L30.78 -10.71C30.78 -10.89 30.72 -10.98 30.59 -10.98C30.57 -10.98 30.51 -10.96 30.42 -10.91L27.55 -9.56C27.44 -9.5 27.39 -9.43 27.39 -9.34C27.39 -9.26 27.4 -9.2 27.43 -9.18C27.45 -9.15 27.52 -9.12 27.62 -9.09C27.72 -9.06 27.86 -9.03 28.03 -9C28.2 -8.96 28.36 -8.92 28.51 -8.87C28.86 -8.75 29.03 -8.53 29.03 -8.21L29.03 -1.73C29.03 -0.99 28.62 -0.56 27.81 -0.45C27.46 -0.4 27.28 -0.3 27.28 -0.16C27.28 -0.07 27.32 -0.02 27.4 0L32.42 0C32.49 -0.02 32.53 -0.08 32.53 -0.2C32.53 -0.31 32.35 -0.4 32 -0.45C31.19 -0.56 30.78 -1 30.78 -1.76L30.78 -7.74C30.9 -7.88 31.07 -8.02 31.31 -8.18C32.26 -8.81 33 -9.12 33.53 -9.12C34.98 -9.12 35.71 -8.54 35.71 -7.36L35.71 -1.76C35.71 -1 35.31 -0.56 34.5 -0.45C34.14 -0.4 33.97 -0.3 33.97 -0.16C33.97 -0.07 34.01 -0.02 34.08 0L39.1 0C39.17 -0.02 39.21 -0.08 39.21 -0.2C39.21 -0.31 39.04 -0.4 38.68 -0.45C37.87 -0.56 37.47 -1 37.47 -1.76L37.47 -7.81C37.48 -7.91 37.57 -8.01 37.76 -8.12C39.16 -8.8 40.07 -9.14 40.5 -9.14C40.93 -9.14 41.27 -9.04 41.53 -8.84C41.78 -8.64 41.99 -8.34 42.16 -7.95C42.32 -7.56 42.41 -6.89 42.41 -5.92Z M54.32 -1.39C54.13 -1.51 54.04 -1.66 54.04 -1.86L54.04 -7.79C54.04 -8.51 53.74 -9.13 53.15 -9.65C52.56 -10.17 51.79 -10.43 50.85 -10.43C49.9 -10.43 49.06 -10.09 48.33 -9.41C48.01 -9.11 47.77 -8.79 47.59 -8.44C47.42 -8.09 47.34 -7.77 47.34 -7.48C47.34 -7.19 47.4 -7.04 47.52 -7.04C47.59 -7.06 47.88 -7.17 48.37 -7.38C48.87 -7.59 49.14 -7.74 49.18 -7.83L49.12 -8.27C49.12 -8.71 49.28 -9.05 49.59 -9.29C49.9 -9.53 50.21 -9.65 50.51 -9.65C50.82 -9.65 51.08 -9.6 51.3 -9.49C51.96 -9.14 52.29 -8.54 52.29 -7.7L52.29 -5.54C52.29 -5.49 52.28 -5.44 52.26 -5.39C52.24 -5.34 52.05 -5.22 51.7 -5.03C51.35 -4.84 50.95 -4.69 50.5 -4.57C49.17 -4.22 48.27 -3.86 47.8 -3.49C47.32 -3.11 47.09 -2.61 47.09 -1.97C47.09 -1.65 47.16 -1.34 47.29 -1.06C47.57 -0.5 48.02 -0.11 48.63 0.14C49.25 0.38 49.87 0.32 50.49 -0.03C50.73 -0.18 51.31 -0.6 52.24 -1.29C52.26 -1.3 52.27 -1.27 52.3 -1.19C52.6 -0.2 52.99 0.3 53.47 0.3C53.86 0.3 54.63 -0.11 55.75 -0.93C55.9 -1.05 55.98 -1.18 55.98 -1.34C55.98 -1.51 55.95 -1.59 55.89 -1.59C55.83 -1.59 55.72 -1.52 55.55 -1.4C55.39 -1.28 55.19 -1.22 54.95 -1.22C54.71 -1.22 54.5 -1.27 54.32 -1.39ZM49.27 -1.24C48.99 -1.51 48.85 -1.82 48.85 -2.18C48.85 -2.54 48.9 -2.79 48.99 -2.93C49.09 -3.06 49.27 -3.23 49.54 -3.42L52.15 -4.64C52.17 -4.64 52.19 -4.65 52.23 -4.65C52.27 -4.65 52.29 -4.61 52.29 -4.52L52.29 -2.24C52.29 -1.92 52.03 -1.6 51.52 -1.3C51.01 -1 50.58 -0.84 50.22 -0.84C49.86 -0.84 49.55 -0.98 49.27 -1.24Z M63.89 -8.07C64.06 -8.07 64.23 -8.24 64.4 -8.6C64.58 -8.95 64.66 -9.21 64.66 -9.38C64.66 -9.53 64.39 -9.7 63.85 -9.91C63.3 -10.12 62.9 -10.23 62.64 -10.23C62.17 -10.23 61.58 -9.73 60.87 -8.73C60.62 -8.38 60.47 -8.2 60.41 -8.2C60.36 -8.2 60.34 -8.25 60.34 -8.34L60.34 -10.16C60.34 -10.34 60.28 -10.43 60.15 -10.43C60.13 -10.43 60.07 -10.41 59.98 -10.36L57.11 -9.01C57 -8.95 56.94 -8.88 56.94 -8.79C56.94 -8.71 56.96 -8.65 56.98 -8.62C57.01 -8.6 57.07 -8.57 57.17 -8.54C57.28 -8.51 57.41 -8.48 57.59 -8.44C57.76 -8.41 57.92 -8.37 58.07 -8.31C58.41 -8.19 58.59 -7.98 58.59 -7.66L58.59 -1.71C58.59 -0.98 58.18 -0.55 57.37 -0.43C57.02 -0.38 56.84 -0.29 56.84 -0.16C56.84 -0.07 56.88 -0.02 56.96 0L62.59 0C62.67 -0.02 62.7 -0.07 62.7 -0.15C62.7 -0.24 62.67 -0.3 62.6 -0.33C62.53 -0.36 62.37 -0.39 62.12 -0.42C61.87 -0.46 61.61 -0.51 61.32 -0.59C60.67 -0.77 60.34 -1.15 60.34 -1.71L60.34 -6.8C60.34 -7.15 60.54 -7.54 60.92 -7.98C61.31 -8.42 61.68 -8.64 62.03 -8.64C62.38 -8.64 62.87 -8.5 63.49 -8.21C63.66 -8.13 63.8 -8.08 63.89 -8.07Z M68.79 -5.39L68.8 -5.39C68.81 -5.38 68.81 -5.37 68.81 -5.37L72.29 -1.69C72.39 -1.56 72.49 -1.43 72.61 -1.29C72.72 -1.16 72.77 -1.05 72.77 -0.97C72.77 -0.69 72.49 -0.5 71.93 -0.39C71.74 -0.36 71.65 -0.27 71.65 -0.14C71.65 -0.05 71.69 0 71.76 0L76.7 0C76.82 0 76.88 -0.07 76.88 -0.2C76.88 -0.28 76.83 -0.33 76.72 -0.36C76.62 -0.39 76.41 -0.45 76.09 -0.55C75.78 -0.64 75.47 -0.84 75.17 -1.15L70.55 -6.02C70.4 -6.16 70.33 -6.28 70.33 -6.38L73.56 -8.9C73.85 -9.13 74.25 -9.3 74.74 -9.41C75.24 -9.52 75.57 -9.6 75.75 -9.65C75.92 -9.71 76 -9.78 76 -9.87C76 -10.04 75.87 -10.13 75.61 -10.13L71.32 -10.13C71.02 -10.13 70.86 -10.05 70.86 -9.89C70.86 -9.73 70.93 -9.63 71.08 -9.59C71.22 -9.55 71.38 -9.52 71.55 -9.5C71.73 -9.48 71.89 -9.45 72.03 -9.41C72.17 -9.37 72.25 -9.27 72.25 -9.11C72.25 -8.95 72.04 -8.65 71.64 -8.23C71.23 -7.81 70.78 -7.42 70.28 -7.08C69.78 -6.74 69.43 -6.57 69.21 -6.57C69.1 -6.57 68.99 -6.59 68.89 -6.63C68.8 -6.66 68.72 -6.79 68.66 -7.01L68.66 -18.24C68.66 -18.42 68.59 -18.51 68.47 -18.51C68.44 -18.51 68.39 -18.49 68.3 -18.44L65.43 -17.09C65.32 -17.03 65.26 -16.96 65.26 -16.87C65.26 -16.79 65.27 -16.73 65.3 -16.7C65.32 -16.68 65.39 -16.65 65.49 -16.62C65.59 -16.59 65.73 -16.56 65.9 -16.52C66.07 -16.49 66.23 -16.45 66.38 -16.39C66.73 -16.27 66.9 -16.06 66.9 -15.74L66.9 -1.71C66.9 -0.98 66.5 -0.55 65.69 -0.43C65.33 -0.38 65.16 -0.29 65.16 -0.16C65.16 -0.07 65.2 -0.02 65.27 0L70.29 0C70.36 0 70.4 -0.06 70.4 -0.18C70.4 -0.3 70.22 -0.38 69.87 -0.43C69.06 -0.55 68.66 -0.98 68.66 -1.71L68.66 -4.84C68.66 -5.21 68.7 -5.39 68.79 -5.39Z M79.59 -5.93L86.12 -5.93C86.28 -5.93 86.36 -6.09 86.36 -6.41C86.36 -7.15 86.01 -8 85.32 -8.97C84.63 -9.94 83.74 -10.43 82.65 -10.43C81.14 -10.43 79.95 -9.85 79.08 -8.67C78.21 -7.5 77.78 -6.21 77.78 -4.79C77.78 -3.37 78.18 -2.18 78.97 -1.23C79.35 -0.77 79.8 -0.4 80.32 -0.12C80.85 0.16 81.37 0.3 81.88 0.3C82.39 0.3 82.84 0.23 83.25 0.09C84.43 -0.32 85.45 -1.05 86.32 -2.1C86.28 -2.13 86.24 -2.17 86.2 -2.24C86.16 -2.32 86.12 -2.35 86.07 -2.35L86.02 -2.35C86 -2.35 85.98 -2.34 85.96 -2.33C85.02 -1.44 84.03 -1 83.01 -1C81.98 -1 81.13 -1.4 80.44 -2.18C79.75 -2.97 79.4 -3.95 79.4 -5.11C79.4 -5.66 79.47 -5.93 79.59 -5.93ZM79.72 -7.01L79.72 -7.14C79.84 -7.8 80.14 -8.38 80.6 -8.89C81.06 -9.4 81.57 -9.65 82.14 -9.65C82.71 -9.65 83.24 -9.37 83.73 -8.8C84.21 -8.24 84.45 -7.68 84.45 -7.14C84.45 -6.91 84.36 -6.8 84.16 -6.8L79.92 -6.8C79.78 -6.8 79.72 -6.87 79.72 -7.01Z M90.98 -8.65L94.37 -8.65C94.43 -8.65 94.46 -8.67 94.46 -8.72C94.46 -9.65 94.29 -10.12 93.96 -10.12L91.09 -10.12C90.97 -10.12 90.91 -10.19 90.91 -10.33C91.17 -11.3 91.29 -11.79 91.29 -11.8C91.29 -11.91 91.23 -11.96 91.1 -11.96C90.98 -11.96 90.79 -11.82 90.55 -11.53C90.3 -11.25 90.12 -11.02 89.99 -10.86C89.86 -10.69 89.76 -10.57 89.69 -10.49C88.99 -9.83 88.44 -9.37 88.04 -9.11C87.99 -9.08 87.97 -8.99 87.98 -8.85C87.99 -8.72 88.1 -8.65 88.31 -8.65L89.16 -8.65L89.16 -2.39C89.16 -1.65 89.37 -1.02 89.79 -0.49C90.22 0.04 90.85 0.3 91.68 0.3C92.52 0.3 93.39 -0.28 94.29 -1.44C94.33 -1.49 94.34 -1.61 94.34 -1.79C94.34 -1.84 94.29 -1.87 94.19 -1.87C94.08 -1.87 93.96 -1.82 93.83 -1.72C93.69 -1.61 93.54 -1.5 93.37 -1.38C93.2 -1.26 93 -1.15 92.77 -1.05C92.55 -0.95 92.28 -0.9 91.97 -0.9C91.66 -0.9 91.41 -1.03 91.21 -1.28C91.01 -1.54 90.91 -1.89 90.91 -2.34L90.91 -8.55C90.91 -8.62 90.93 -8.65 90.98 -8.65Z M115.13 -1.39C114.95 -1.51 114.86 -1.66 114.86 -1.86L114.86 -7.79C114.86 -8.51 114.56 -9.13 113.97 -9.65C113.37 -10.17 112.61 -10.43 111.66 -10.43C110.71 -10.43 109.87 -10.09 109.14 -9.41C108.82 -9.11 108.58 -8.79 108.41 -8.44C108.24 -8.09 108.15 -7.77 108.15 -7.48C108.15 -7.19 108.21 -7.04 108.33 -7.04C108.4 -7.06 108.69 -7.17 109.18 -7.38C109.68 -7.59 109.95 -7.74 109.99 -7.83L109.94 -8.27C109.94 -8.71 110.09 -9.05 110.41 -9.29C110.72 -9.53 111.02 -9.65 111.33 -9.65C111.63 -9.65 111.89 -9.6 112.11 -9.49C112.77 -9.14 113.1 -8.54 113.1 -7.7L113.1 -5.54C113.1 -5.49 113.09 -5.44 113.07 -5.39C113.05 -5.34 112.87 -5.22 112.52 -5.03C112.16 -4.84 111.76 -4.69 111.31 -4.57C109.98 -4.22 109.08 -3.86 108.61 -3.49C108.14 -3.11 107.9 -2.61 107.9 -1.97C107.9 -1.65 107.97 -1.34 108.1 -1.06C108.38 -0.5 108.83 -0.11 109.45 0.14C110.07 0.38 110.68 0.32 111.3 -0.03C111.54 -0.18 112.13 -0.6 113.06 -1.29C113.07 -1.3 113.09 -1.27 113.11 -1.19C113.41 -0.2 113.8 0.3 114.28 0.3C114.68 0.3 115.44 -0.11 116.57 -0.93C116.72 -1.05 116.79 -1.18 116.79 -1.34C116.79 -1.51 116.76 -1.59 116.7 -1.59C116.64 -1.59 116.53 -1.52 116.37 -1.4C116.21 -1.28 116.01 -1.22 115.77 -1.22C115.53 -1.22 115.31 -1.27 115.13 -1.39ZM110.08 -1.24C109.81 -1.51 109.67 -1.82 109.67 -2.18C109.67 -2.54 109.72 -2.79 109.81 -2.93C109.9 -3.06 110.08 -3.23 110.35 -3.42L112.97 -4.64C112.98 -4.64 113.01 -4.65 113.04 -4.65C113.08 -4.65 113.1 -4.61 113.1 -4.52L113.1 -2.24C113.1 -1.92 112.85 -1.6 112.34 -1.3C111.83 -1 111.39 -0.84 111.04 -0.84C110.68 -0.84 110.36 -0.98 110.08 -1.24Z M126.69 -9.08C126.69 -9.15 126.67 -9.22 126.64 -9.29C126.49 -9.62 126.25 -9.9 125.89 -10.12C125.54 -10.33 124.82 -10.44 123.74 -10.44C122 -10.44 120.65 -10.01 119.7 -9.15C118.63 -8.16 118.09 -6.56 118.08 -4.32C118.08 -3.11 118.49 -2.04 119.29 -1.1C120.1 -0.17 121.13 0.3 122.39 0.3C124.13 0.3 125.58 -0.5 126.73 -2.09C126.77 -2.14 126.79 -2.2 126.79 -2.29C126.79 -2.38 126.77 -2.44 126.71 -2.49C126.66 -2.53 126.61 -2.55 126.57 -2.55C126.52 -2.55 126.39 -2.43 126.16 -2.18C125.43 -1.36 124.6 -0.95 123.68 -0.95C122.44 -0.95 121.52 -1.36 120.92 -2.2C120.32 -3.04 120.02 -4.11 120.02 -5.43C120.02 -6.05 120.14 -6.67 120.37 -7.29C120.79 -8.42 121.39 -9.15 122.16 -9.5C122.94 -9.84 123.6 -9.79 124.14 -9.35C124.27 -9.24 124.39 -9.13 124.5 -9.01C124.62 -8.88 124.78 -8.73 125 -8.56C125.21 -8.38 125.47 -8.29 125.78 -8.29C126.39 -8.29 126.69 -8.55 126.69 -9.08Z M137.2 -9.08C137.2 -9.15 137.18 -9.22 137.14 -9.29C137 -9.62 136.75 -9.9 136.4 -10.12C136.05 -10.33 135.33 -10.44 134.25 -10.44C132.51 -10.44 131.16 -10.01 130.21 -9.15C129.14 -8.16 128.6 -6.56 128.59 -4.32C128.59 -3.11 129 -2.04 129.8 -1.1C130.61 -0.17 131.64 0.3 132.9 0.3C134.64 0.3 136.09 -0.5 137.23 -2.09C137.28 -2.14 137.3 -2.2 137.3 -2.29C137.3 -2.38 137.28 -2.44 137.22 -2.49C137.17 -2.53 137.12 -2.55 137.08 -2.55C137.03 -2.55 136.9 -2.43 136.67 -2.18C135.94 -1.36 135.11 -0.95 134.19 -0.95C132.95 -0.95 132.03 -1.36 131.43 -2.2C130.83 -3.04 130.53 -4.11 130.53 -5.43C130.53 -6.05 130.65 -6.67 130.88 -7.29C131.3 -8.42 131.9 -9.15 132.67 -9.5C133.45 -9.84 134.11 -9.79 134.65 -9.35C134.77 -9.24 134.9 -9.13 135.01 -9.01C135.13 -8.88 135.29 -8.73 135.51 -8.56C135.72 -8.38 135.98 -8.29 136.29 -8.29C136.9 -8.29 137.2 -8.55 137.2 -9.08Z M140.69 -5.93L147.21 -5.93C147.37 -5.93 147.45 -6.09 147.45 -6.41C147.45 -7.15 147.11 -8 146.42 -8.97C145.73 -9.94 144.84 -10.43 143.75 -10.43C142.23 -10.43 141.04 -9.85 140.18 -8.67C139.31 -7.5 138.88 -6.21 138.88 -4.79C138.88 -3.37 139.28 -2.18 140.07 -1.23C140.45 -0.77 140.9 -0.4 141.42 -0.12C141.95 0.16 142.46 0.3 142.97 0.3C143.48 0.3 143.94 0.23 144.35 0.09C145.52 -0.32 146.55 -1.05 147.42 -2.1C147.38 -2.13 147.34 -2.17 147.3 -2.24C147.26 -2.32 147.21 -2.35 147.17 -2.35L147.11 -2.35C147.09 -2.35 147.07 -2.34 147.06 -2.33C146.11 -1.44 145.13 -1 144.1 -1C143.08 -1 142.22 -1.4 141.53 -2.18C140.84 -2.97 140.5 -3.95 140.5 -5.11C140.5 -5.66 140.56 -5.93 140.69 -5.93ZM140.81 -7.01L140.81 -7.14C140.94 -7.8 141.23 -8.38 141.7 -8.89C142.16 -9.4 142.67 -9.65 143.23 -9.65C143.81 -9.65 144.34 -9.37 144.82 -8.8C145.31 -8.24 145.55 -7.68 145.55 -7.14C145.55 -6.91 145.45 -6.8 145.26 -6.8L141.02 -6.8C140.88 -6.8 140.81 -6.87 140.81 -7.01Z M154.8 -7.7L154.8 -8.73C154.8 -9.33 154.77 -9.69 154.71 -9.79C154.65 -9.9 154.44 -10.04 154.1 -10.19C153.75 -10.35 153.21 -10.43 152.48 -10.43C151.75 -10.43 151.04 -10.14 150.35 -9.56C149.66 -8.98 149.32 -8.28 149.32 -7.48C149.32 -6.41 150.08 -5.43 151.59 -4.55C151.98 -4.32 152.34 -4.09 152.68 -3.85C153.01 -3.61 153.29 -3.34 153.52 -3.05C153.74 -2.76 153.85 -2.4 153.85 -1.97C153.85 -1.54 153.71 -1.15 153.43 -0.8C153.14 -0.46 152.76 -0.28 152.29 -0.28C151.22 -0.28 150.44 -0.83 149.93 -1.91C149.85 -2.08 149.8 -2.19 149.79 -2.25C149.77 -2.31 149.74 -2.37 149.71 -2.42C149.68 -2.48 149.65 -2.53 149.61 -2.57C149.56 -2.6 149.51 -2.62 149.45 -2.62C149.39 -2.62 149.35 -2.61 149.32 -2.6C149.3 -2.58 149.29 -2.5 149.29 -2.35C149.29 -2.2 149.32 -1.72 149.39 -0.91C149.45 -0.1 149.51 0.3 149.56 0.3L149.75 0.3C149.82 0.3 149.92 0.24 150.04 0.12C150.17 -0.01 150.26 -0.07 150.31 -0.07C150.37 -0.07 150.58 -0.01 150.96 0.12C151.33 0.24 151.74 0.3 152.2 0.3C153.05 0.3 153.8 0.05 154.45 -0.47C155.09 -0.98 155.42 -1.68 155.42 -2.55C155.42 -3.43 155.04 -4.2 154.29 -4.87C153.96 -5.16 153.44 -5.52 152.72 -5.94C152 -6.36 151.48 -6.72 151.16 -7.03C150.85 -7.33 150.69 -7.61 150.69 -7.85C150.69 -8.1 150.73 -8.34 150.8 -8.57C151.04 -9.26 151.51 -9.61 152.2 -9.61C152.72 -9.61 153.17 -9.42 153.52 -9.03C153.88 -8.65 154.15 -8.21 154.33 -7.72C154.39 -7.54 154.49 -7.45 154.61 -7.45C154.74 -7.45 154.8 -7.53 154.8 -7.7Z M162.51 -7.7L162.51 -8.73C162.51 -9.33 162.48 -9.69 162.42 -9.79C162.36 -9.9 162.15 -10.04 161.8 -10.19C161.45 -10.35 160.92 -10.43 160.19 -10.43C159.46 -10.43 158.75 -10.14 158.06 -9.56C157.37 -8.98 157.03 -8.28 157.03 -7.48C157.03 -6.41 157.78 -5.43 159.3 -4.55C159.69 -4.32 160.05 -4.09 160.38 -3.85C160.72 -3.61 161 -3.34 161.22 -3.05C161.45 -2.76 161.56 -2.4 161.56 -1.97C161.56 -1.54 161.42 -1.15 161.13 -0.8C160.85 -0.46 160.47 -0.28 160 -0.28C158.93 -0.28 158.14 -0.83 157.63 -1.91C157.56 -2.08 157.51 -2.19 157.49 -2.25C157.47 -2.31 157.45 -2.37 157.42 -2.42C157.39 -2.48 157.35 -2.53 157.31 -2.57C157.27 -2.6 157.22 -2.62 157.16 -2.62C157.1 -2.62 157.06 -2.61 157.03 -2.6C157.01 -2.58 156.99 -2.5 156.99 -2.35C156.99 -2.2 157.03 -1.72 157.09 -0.91C157.16 -0.1 157.22 0.3 157.26 0.3L157.45 0.3C157.53 0.3 157.63 0.24 157.75 0.12C157.88 -0.01 157.97 -0.07 158.02 -0.07C158.08 -0.07 158.29 -0.01 158.66 0.12C159.03 0.24 159.45 0.3 159.91 0.3C160.76 0.3 161.51 0.05 162.16 -0.47C162.8 -0.98 163.12 -1.68 163.12 -2.55C163.12 -3.43 162.75 -4.2 162 -4.87C161.67 -5.16 161.14 -5.52 160.42 -5.94C159.7 -6.36 159.19 -6.72 158.87 -7.03C158.56 -7.33 158.4 -7.61 158.4 -7.85C158.4 -8.1 158.44 -8.34 158.51 -8.57C158.75 -9.26 159.22 -9.61 159.91 -9.61C160.43 -9.61 160.87 -9.42 161.23 -9.03C161.58 -8.65 161.85 -8.21 162.03 -7.72C162.1 -7.54 162.2 -7.45 162.32 -7.45C162.44 -7.45 162.51 -7.53 162.51 -7.7Z M165.86 -2.18C165.57 -1.88 165.43 -1.53 165.43 -1.13C165.43 -0.73 165.58 -0.39 165.86 -0.11C166.15 0.17 166.5 0.3 166.89 0.3C167.3 0.3 167.64 0.17 167.93 -0.11C168.21 -0.38 168.36 -0.72 168.36 -1.14C168.36 -1.55 168.21 -1.9 167.92 -2.19C167.63 -2.48 167.29 -2.62 166.89 -2.62C166.49 -2.62 166.14 -2.47 165.86 -2.18Z"></path></g></g></g></svg>